<svg id="Layer_1" data-name="Layer 1" xmlns="http://www.w3.org/2000/svg" viewBox="0 0 26.61 22.05"><defs><style>.cls-1{fill:#fff;}</style></defs><title>Back Aero</title><path class="cls-1" d="M427.25,50.73H406l7.19-7.67a1.25,1.25,0,0,0-1.82-1.71l-9.16,9.77a1.2,1.2,0,0,0-.12.19,1.21,1.21,0,0,0-.12.19,1.25,1.25,0,0,0-.09.45v0a1.25,1.25,0,0,0,.09.45,1.21,1.21,0,0,0,.12.19,1.2,1.2,0,0,0,.12.19l9.16,9.77a1.25,1.25,0,0,0,1.82-1.71L406,53.23h21.23a1.25,1.25,0,0,0,0-2.5Z" transform="translate(-401.89 -40.96)"/></svg>