<svg id="Layer_1" data-name="Layer 1" xmlns="http://www.w3.org/2000/svg" viewBox="0 0 31.55 31.78"><defs><style>.cls-1{fill:#bfbfbf;}.cls-2{fill:none;stroke:#c7c8ca;stroke-miterlimit:10;}</style></defs><title>mybooking_gray_icon</title><path class="cls-1" d="M416.08,27.59c.17,2.2.8,3.08,2.18,3.06s2-.9,2.09-3.06h12.44c.34,2.32.91,3.09,2.27,3.05s1.91-.86,2.12-3a2.27,2.27,0,0,1,3,2.35c0,2.62,0,6.23,0,8.91h-2V33.84H415.08c0,.28,0,.54,0,.8,0,4.3,0,8.6,0,12.9,0,.79.25,1,1,1,3.55,0,7.11,0,10.66,0h1.91v2c-.26,0-1.52.05-1.78.05H415.69c-1.87,0-2.66-.8-2.66-2.7q0-8.78,0-17.55C413,28.21,414,27.37,416.08,27.59Z" transform="translate(-413.02 -23.36)"/><path class="cls-1" d="M423.54,40V35.93h4.05V40Z" transform="translate(-413.02 -23.36)"/><path class="cls-1" d="M433.91,36v4h-4.1V36Z" transform="translate(-413.02 -23.36)"/><path class="cls-1" d="M423.57,42.23h4v4h-4Z" transform="translate(-413.02 -23.36)"/><path class="cls-1" d="M417.27,35.93h4V40h-4Z" transform="translate(-413.02 -23.36)"/><path class="cls-1" d="M417.27,42.22h4v4h-4Z" transform="translate(-413.02 -23.36)"/><path class="cls-1" d="M436,26.5c0,.64,0,1.28,0,1.92a1,1,0,0,1-1,1.14,1,1,0,0,1-1.08-1c0-1.39,0-2.77,0-4.16a1,1,0,1,1,2,.06C436,25.11,436,25.81,436,26.5Z" transform="translate(-413.02 -23.36)"/><path class="cls-1" d="M419.23,26.45c0,.67,0,1.33,0,2a1,1,0,0,1-1,1.11,1,1,0,0,1-1-1.07c0-1.36,0-2.72,0-4.07,0-.66.33-1.07,1-1.06s1,.45,1,1.09S419.23,25.79,419.23,26.45Z" transform="translate(-413.02 -23.36)"/><circle class="cls-2" cx="24.44" cy="24.67" r="6.61"/><path class="cls-1" d="M440.68,45.64a1.32,1.32,0,0,0-1.06.43l-2.68,3-1.64-1.33c-.43-.35-1.91.27-1.49.62l2.35,1.91c.41.34,1.17.06,1.49-.3l3.45-3.89C441.38,45.79,440.88,45.66,440.68,45.64Z" transform="translate(-413.02 -23.36)"/></svg>