<svg id="Layer_1" data-name="Layer 1" xmlns="http://www.w3.org/2000/svg" viewBox="0 0 18.24 12.88"><defs><style>.cls-1{fill:#c7c8ca;}</style></defs><title>Email ID</title><path class="cls-1" d="M388.74,59.06l-.41.43-6.74,6.73a4.77,4.77,0,0,1-.43.39,1.09,1.09,0,0,1-1.61,0c-.44-.39-.85-.81-1.27-1.23l-5.91-5.91a1.41,1.41,0,0,1-.17-.28,1.26,1.26,0,0,1,.34-.1h15.89Z" transform="translate(-371.25 -59.03)"/><path class="cls-1" d="M388.58,71.78c-.25.17-16.08.19-16.42,0a2.37,2.37,0,0,1,.2-.27l5.07-5.07c.18-.18.31-.19.51,0,.52.48,1,1,1.6,1.38a1.3,1.3,0,0,0,1.65,0,17.94,17.94,0,0,0,1.57-1.36c.22-.2.36-.21.56,0l5.11,5.12A1.6,1.6,0,0,1,388.58,71.78Z" transform="translate(-371.25 -59.03)"/><path class="cls-1" d="M371.27,71.06c0-.1,0-.21,0-.31q0-5.19,0-10.38a.84.84,0,0,1,0-.19c0-.07,0-.16.09-.19s.13,0,.19.06a.77.77,0,0,1,.14.13l4.91,4.91c.37.37.37.38,0,.76l-4.39,4.39c-.28.28-.56.58-.83.87Z" transform="translate(-371.25 -59.03)"/><path class="cls-1" d="M389.49,65.48q0,2.57,0,5.15a1.61,1.61,0,0,1-.07.33,1.26,1.26,0,0,1-.31-.17l-5-5c-.28-.28-.28-.35,0-.63l5-5a1.51,1.51,0,0,1,.31-.19,1.58,1.58,0,0,1,.1.38C389.49,62.07,389.49,63.77,389.49,65.48Z" transform="translate(-371.25 -59.03)"/></svg>