<svg id="Layer_1" data-name="Layer 1" xmlns="http://www.w3.org/2000/svg" viewBox="0 0 32.01 32.15"><defs><style>.cls-1{fill:#ef7838;}.cls-2{fill:#fff;}</style></defs><title>faq_orange_icon</title><path class="cls-1" d="M340.21,119H320.34a3.79,3.79,0,0,0-3.79,3.79V134.1a3.79,3.79,0,0,0,3.79,3.79h1.56v8l9-8h9.34A3.79,3.79,0,0,0,344,134.1V122.82A3.79,3.79,0,0,0,340.21,119Z" transform="translate(-316.54 -119.02)"/><path class="cls-1" d="M327.85,143.42H334l8.87,7.75v-7.75s5.14,0,5.63-4.61V129s0-3.84-3-4.45l0,9.4s.55,4.94-4.41,5.6l-9.11,0Z" transform="translate(-316.54 -119.02)"/><path class="cls-2" d="M321,124.71h3.45V126h-2.14v1.26h2.14v1.27h-2.14v3.13H321Z" transform="translate(-316.54 -119.02)"/><path class="cls-2" d="M327.76,124.71h1.34l2.67,7H330.4l-.54-1.43H327l-.57,1.43h-1.37Zm.68,1.84-.93,2.39h1.86Z" transform="translate(-316.54 -119.02)"/><path class="cls-2" d="M338.77,130.65l1.21,1.57h-1.57l-.62-.79a3.67,3.67,0,0,1-4.3-.66,3.66,3.66,0,0,1,.77-5.73,3.54,3.54,0,0,1,1.81-.49,3.46,3.46,0,0,1,2.54,1.07,3.72,3.72,0,0,1,.14,5Zm-.83-1.07a2.42,2.42,0,0,0,.42-1.38,2.32,2.32,0,0,0-.67-1.68,2.16,2.16,0,0,0-1.61-.69,2.19,2.19,0,0,0-1.63.67,2.34,2.34,0,0,0-.66,1.71,2.22,2.22,0,0,0,.83,1.83,2.28,2.28,0,0,0,1.47.52,2.18,2.18,0,0,0,.89-.18l-1.25-1.6h1.58Z" transform="translate(-316.54 -119.02)"/></svg>