<svg id="Layer_1" data-name="Layer 1" xmlns="http://www.w3.org/2000/svg" viewBox="0 0 12.46 24.67"><defs><style>.cls-1{fill:none;stroke:#ef7237;stroke-miterlimit:10;stroke-width:0.75px;}.cls-2{fill:#f8a17e;}</style></defs><title>Mobile Icon-01</title><path class="cls-1" d="M358.08,34a1.56,1.56,0,0,0-1.63,1.62q0,10.36,0,20.71A1.55,1.55,0,0,0,358,57.94h8.56a1.53,1.53,0,0,0,1-.34,1.57,1.57,0,0,0,.59-1.3q0-3.86,0-7.73V35.66A1.56,1.56,0,0,0,366.52,34Z" transform="translate(-356.07 -33.65)"/><rect class="cls-2" x="1.87" y="1.95" width="8.73" height="11.34" rx="0.78" ry="0.78"/><rect class="cls-2" x="4.76" y="21.13" width="2.94" height="1.96"/><rect class="cls-2" x="1.59" y="21.13" width="2.94" height="1.96"/><rect class="cls-2" x="7.94" y="21.13" width="2.94" height="1.96"/><rect class="cls-2" x="1.59" y="18.92" width="2.94" height="1.98"/><rect class="cls-2" x="4.77" y="18.92" width="2.94" height="1.97"/><rect class="cls-2" x="7.92" y="18.71" width="2.9" height="1.94"/><rect class="cls-2" x="7.92" y="16.54" width="2.9" height="1.94"/><rect class="cls-2" x="4.78" y="16.55" width="2.91" height="1.93"/><rect class="cls-2" x="1.64" y="16.54" width="2.91" height="1.94"/><rect class="cls-2" x="7.92" y="14.38" width="2.9" height="1.94"/><rect class="cls-2" x="4.78" y="14.38" width="2.91" height="1.93"/><rect class="cls-2" x="1.64" y="14.37" width="2.91" height="1.94"/></svg>