<svg id="Layer_1" data-name="Layer 1" xmlns="http://www.w3.org/2000/svg" viewBox="0 0 26.51 26.62"><defs><style>.cls-1{fill:#ef7838;}</style></defs><title>profile_orange_icon</title><path class="cls-1" d="M140.5,145.64H127.94c-.58,0-.68-.11-.64-.71a7.86,7.86,0,0,1,6.18-7.43,6.49,6.49,0,0,1,1.35-.15c3.81,0,7.63,0,11.44,0A7.81,7.81,0,0,1,153.8,145c0,.51-.09.61-.64.61Z" transform="translate(-127.29 -119.02)"/><path class="cls-1" d="M140.57,135.28a8.13,8.13,0,1,1,7.84-8.19A8,8,0,0,1,140.57,135.28Zm-.49-14.4v0a10.82,10.82,0,0,0-1.47.28,4.91,4.91,0,0,0-3.41,3.8c0,.15.12.35.19.53.17-.11.34-.22.49-.34s0-.13,0-.19a4.22,4.22,0,0,1,3.43-3.19,5.63,5.63,0,0,1,1.34,0c.28,0,.56.05.61-.3s-.25-.42-.5-.46S140.32,120.9,140.08,120.88Zm-4.41,6.58h0a4.18,4.18,0,0,0,0-.8.5.5,0,0,0-.31-.34.46.46,0,0,0-.36.28,11.22,11.22,0,0,0,0,1.64c0,.11.25.28.4.29s.25-.23.28-.37A3.18,3.18,0,0,0,135.67,127.46Z" transform="translate(-127.29 -119.02)"/></svg>