<svg id="Layer_1" data-name="Layer 1" xmlns="http://www.w3.org/2000/svg" viewBox="0 0 16.06 16.07"><defs><style>.cls-1{fill:#c7c8ca;}</style></defs><title>Username</title><path class="cls-1" d="M382.42,77.4A7.15,7.15,0,0,0,384.77,79a5.52,5.52,0,0,0,5.38-.58,13.26,13.26,0,0,0,1.07-.82.18.18,0,0,1,.24,0,6.75,6.75,0,0,1,3.06,3.3,7.77,7.77,0,0,1,.64,3.14.71.71,0,0,1,0,.07h-16a7.08,7.08,0,0,1,.38-2.85A7.64,7.64,0,0,1,382.42,77.4Z" transform="translate(-379.1 -67.99)"/><path class="cls-1" d="M386.85,77.55a4.78,4.78,0,1,1,4.79-4.75A4.77,4.77,0,0,1,386.85,77.55Z" transform="translate(-379.1 -67.99)"/></svg>