<svg id="Layer_1" data-name="Layer 1" xmlns="http://www.w3.org/2000/svg" viewBox="0 0 21.89 18.34"><defs><style>.cls-1{fill:#ef7838;}</style></defs><title>feed_back_icon</title><path class="cls-1" d="M64.28,7.47a1.17,1.17,0,1,1-1.15-1.19A1.18,1.18,0,0,1,64.28,7.47Z" transform="translate(-52.17 -6.28)"/><path class="cls-1" d="M61.79,7.73l.12.36,0,0c-.2.18-.4.35-.59.53l-2.14,2.13a.34.34,0,0,1-.19.08c-.13,0-.25,0-.39,0Z" transform="translate(-52.17 -6.28)"/><path class="cls-1" d="M67.57,10.88l-.5,0s-.06,0-.09-.06L64.65,8.44l-.3-.31a.12.12,0,0,1,0-.09c0-.11.08-.22.11-.31Z" transform="translate(-52.17 -6.28)"/><path class="cls-1" d="M74,16.29s0-.06,0-.1q0-.57,0-1.14a.3.3,0,0,0,0-.1.7.7,0,0,0,0-.17c0-.83,0-1.66,0-2.5a1.15,1.15,0,0,0-1.21-1.19H53.32a1.13,1.13,0,0,0-1.15,1.15q0,2,0,4.06a.6.6,0,0,0,0,.13,1,1,0,0,0,0,.16c0,.52,0,1,0,1.55q0,2.65,0,5.3a1.12,1.12,0,0,0,1,1.16,9.88,9.88,0,0,0,1,0H72.84a1.16,1.16,0,0,0,1.22-1.2q0-3.48,0-7A.66.66,0,0,0,74,16.29Zm-.8-.35q0,3.72,0,7.44c0,.3-.08.38-.38.38H53.44c-.36,0-.43-.07-.43-.43q0-3.72,0-7.43a1.79,1.79,0,0,0,0-.23,1.79,1.79,0,0,0,0-.23q0-1.56,0-3.12c0-.29.09-.39.38-.39H72.85c.26,0,.35.1.35.35,0,1,0,2,0,3a1.91,1.91,0,0,0,.06.33A1.74,1.74,0,0,0,73.21,15.94Z" transform="translate(-52.17 -6.28)"/><path class="cls-1" d="M66.88,17.85V12.7h1.94A2.79,2.79,0,0,1,70.2,13a2,2,0,0,1,1,1.33,3.35,3.35,0,0,1-.13,2,2.14,2.14,0,0,1-1.86,1.4c-.75.08-1.51,0-2.27.06Zm1.39-4.06v2.93c.18,0,.35,0,.52,0a1,1,0,0,0,.92-.74,2.48,2.48,0,0,0,0-1.47.9.9,0,0,0-.72-.67A6.12,6.12,0,0,0,68.27,13.79Z" transform="translate(-52.17 -6.28)"/><path class="cls-1" d="M62.89,17.86V12.7h3v1.1H64.27v.82h1.53v1.11H64.27v1h1.67v1.12Z" transform="translate(-52.17 -6.28)"/><path class="cls-1" d="M58.9,12.7h3v1.1H60.28v.83h1.4c.1,0,.15,0,.15.14,0,.32,0,.64,0,1H60.28v1H62c0,.36,0,.71,0,1.06,0,.1-.07.08-.13.08H59c-.11,0-.13,0-.13-.14q0-2.46,0-4.92S58.9,12.74,58.9,12.7Z" transform="translate(-52.17 -6.28)"/><path class="cls-1" d="M55,22.86V18.53h.11c.56,0,1.12,0,1.69,0a2.62,2.62,0,0,1,.81.15.9.9,0,0,1,.63,1.1.87.87,0,0,1-.55.73l-.15.07.13.07a1,1,0,0,1,.66,1.16,1.28,1.28,0,0,1-1.16,1l-.37,0H55Zm1.17-.9h.55a.54.54,0,0,0,.2-.06.42.42,0,0,0,.23-.46c0-.15-.16-.37-.34-.37l-.64,0Zm0-2.59v.83c.2,0,.4,0,.59,0a.37.37,0,0,0,.31-.38.32.32,0,0,0-.29-.35A5.33,5.33,0,0,0,56.14,19.38Z" transform="translate(-52.17 -6.28)"/><path class="cls-1" d="M63,22.87H61.85a.15.15,0,0,1-.1-.09c-.06-.19-.11-.39-.16-.59s-.06-.13-.16-.13h-1.2c-.08,0-.12,0-.14.11s-.1.41-.16.62c0,0-.06.09-.09.09H58.62l.11-.34c.19-.55.38-1.1.56-1.66.23-.71.45-1.42.67-2.13.07-.24.08-.24.33-.24h1.18a.15.15,0,0,1,.18.12L62.77,22Zm-2.67-1.79h.93l-.47-1.85Z" transform="translate(-52.17 -6.28)"/><path class="cls-1" d="M68.69,22.86H67.53V18.53h1.16v1.9l.5-.74.75-1.11a.16.16,0,0,1,.11-.06h1.19l-.06.1-1.24,1.76a.18.18,0,0,0,0,.16l.91,1.61.4.71c-.32,0-.61,0-.91,0a.5.5,0,0,1-.59-.34c-.19-.45-.44-.88-.68-1.33a3.76,3.76,0,0,0-.33.2s0,.09,0,.14c0,.38,0,.76,0,1.14C68.69,22.74,68.69,22.8,68.69,22.86Z" transform="translate(-52.17 -6.28)"/><path class="cls-1" d="M55,17.86V12.7h3v1.1H56.46c-.1,0-.14,0-.13.13s0,.5,0,.75,0,.13.13.12h1.42v1.11H56.48c-.12,0-.16,0-.16.15,0,.55,0,1.11,0,1.66,0,.11,0,.14-.14.14H55Z" transform="translate(-52.17 -6.28)"/><path class="cls-1" d="M66.84,18.76l-.35.89c-.2-.07-.4-.15-.6-.2a.9.9,0,0,0-1.26.77,2.09,2.09,0,0,0,.06,1.19.83.83,0,0,0,.8.56,2.94,2.94,0,0,0,1.05-.23l.1,0c0,.31,0,.61,0,.91,0,0-.07.1-.12.12A3.2,3.2,0,0,1,65,22.9a1.69,1.69,0,0,1-1.26-.74,2,2,0,0,1-.32-.84,3.26,3.26,0,0,1,.08-1.47,1.91,1.91,0,0,1,1.77-1.38,3.17,3.17,0,0,1,1.43.23l.08,0Z" transform="translate(-52.17 -6.28)"/></svg>