<svg id="Layer_1" data-name="Layer 1" xmlns="http://www.w3.org/2000/svg" viewBox="0 0 29.56 26.62"><defs><style>.cls-1{fill:#bfbfbf;}</style></defs><title>rewards_gray_icon</title><path class="cls-1" d="M227.13,29.34l.07-1h18.68l.05,1h.3c1.15,0,2.3,0,3.45,0a1.46,1.46,0,0,1,1.63,1.55,10.29,10.29,0,0,1-.54,3.07,12.44,12.44,0,0,1-2.15,4.23,6,6,0,0,1-3.73,2.13,1.55,1.55,0,0,0-.58.22c-.3.2-.28.37,0,.62a.92.92,0,0,1,.28.4.56.56,0,0,1-.49.66,1.63,1.63,0,0,1-1.6-.73c-.06-.1-.1-.2-.17-.33l-.18.15a7.88,7.88,0,0,1-2.83,1.85,1.25,1.25,0,0,0-.85.9,9.69,9.69,0,0,0-.27,1.69,25.49,25.49,0,0,0,.25,4.36c0,.37.09.74.12,1.11,0,.17.07.21.25.23.73.07,1.47.12,2.19.26s.92.39,1,1.12a.38.38,0,0,0,.19.23c.37.19.77.34,1.13.54a.76.76,0,0,1,.43.79,5.5,5.5,0,0,0,0,.59H229.34a1.08,1.08,0,0,1,.57-1.48,8.32,8.32,0,0,1,1-.44.24.24,0,0,0,.19-.25,1,1,0,0,1,.93-1.12,16.87,16.87,0,0,1,1.68-.27c.25,0,.51,0,.8,0,0-.4.1-.8.15-1.2a25.47,25.47,0,0,0,.23-4.73,8.93,8.93,0,0,0-.31-1.58,1.11,1.11,0,0,0-.74-.73,8.53,8.53,0,0,1-2.92-1.91l-.14-.13-.1.22a1.6,1.6,0,0,1-1.51.87.62.62,0,0,1-.6-.39.56.56,0,0,1,.2-.67c.34-.29.31-.52-.09-.74a1,1,0,0,0-.33-.11,6,6,0,0,1-4.24-2.64,13,13,0,0,1-2.29-6.49,2.8,2.8,0,0,1,.06-.81,1.33,1.33,0,0,1,1.34-1h4Zm16.61,9.85h.37A4.85,4.85,0,0,0,247.92,37a12.23,12.23,0,0,0,1.86-4.27,17.5,17.5,0,0,0,.29-1.9c0-.24-.07-.36-.37-.36-1.16,0-2.32,0-3.48,0h-.29A19.79,19.79,0,0,1,243.75,39.19Zm-16.6-8.66h-3.63c-.48,0-.52,0-.52.52a1.54,1.54,0,0,0,0,.16,13.56,13.56,0,0,0,1.83,5.39,5.1,5.1,0,0,0,2.57,2.27,4.85,4.85,0,0,0,1.92.34A19.11,19.11,0,0,1,227.15,30.52Z" transform="translate(-221.77 -28.35)"/></svg>