<svg id="Layer_1" data-name="Layer 1" xmlns="http://www.w3.org/2000/svg" viewBox="0 0 24.83 30.1"><defs><style>.cls-1{fill:#ef7838;fill-rule:evenodd;}</style></defs><title>notification_orange_icon</title><path class="cls-1" d="M453.2,196.91v1.53H428.37v-1.53l3.23-2.73v-8.9a9.22,9.22,0,0,1,7-8.91v-1.43a1.89,1.89,0,0,1,1.88-1.88h.66a1.89,1.89,0,0,1,1.88,1.88v1.43a9.22,9.22,0,0,1,7,8.91v8.9Z" transform="translate(-428.37 -173.05)"/><path class="cls-1" d="M443.76,200.05s0,.08,0,.12a3,3,0,1,1-6,0s0-.08,0-.12Z" transform="translate(-428.37 -173.05)"/></svg>