<svg id="Layer_1" data-name="Layer 1" xmlns="http://www.w3.org/2000/svg" viewBox="0 0 31.83 29.15"><defs><style>.cls-1,.cls-2{fill:#ef7838;}.cls-2{stroke:#fff;stroke-miterlimit:10;stroke-width:0.5px;}.cls-3{fill:#fff;}</style></defs><title>my_account_orange_icon</title><path class="cls-1" d="M159.34,73.5H132.92a2.71,2.71,0,0,0-2.71,2.71v18A2.71,2.71,0,0,0,132.92,97h10.9c.12.7,1.1,1.25,2.3,1.25s2.18-.55,2.3-1.25h10.9A2.71,2.71,0,0,0,162,94.25v-18A2.71,2.71,0,0,0,159.34,73.5Z" transform="translate(-130.22 -69.06)"/><path class="cls-2" d="M156.13,69.31h-8.81a1.32,1.32,0,1,1-2.63,0h-8.81a2.47,2.47,0,0,0-2.47,2.47V90.47a2.47,2.47,0,0,0,2.47,2.47h8.48a1.76,1.76,0,0,0,3.28,0h8.48a2.47,2.47,0,0,0,2.47-2.47V71.78A2.47,2.47,0,0,0,156.13,69.31Z" transform="translate(-130.22 -69.06)"/><rect class="cls-3" x="5.93" y="2.31" width="7.19" height="8.44" rx="1.53" ry="1.53"/><rect class="cls-3" x="5.93" y="14" width="7.19" height="2.25" rx="1.12" ry="1.12"/><path class="cls-3" d="M7.05,19.17H12a1.12,1.12,0,0,1,1.12,1.12v0A1.12,1.12,0,0,1,12,21.42H7.05a1.12,1.12,0,0,1-1.12-1.12v0a1.13,1.13,0,0,1,1.13-1.13Z"/><rect class="cls-3" x="18.72" y="14" width="7.19" height="2.25" rx="1.12" ry="1.12"/><rect class="cls-3" x="18.72" y="19.17" width="7.19" height="2.25" rx="1.13" ry="1.13"/><path class="cls-3" d="M149.93,71.37h5.78a9,9,0,0,1-.58.84h-1.54a2,2,0,0,1,.43.91h1.65s0,0,0,0q-.55.83-.56.83h-1.07a2.45,2.45,0,0,1-.41,1,2.51,2.51,0,0,1-.94.79,3.73,3.73,0,0,1-1.61.4h0s1.16,1.42,3.48,4.13H153l-3.39-4v-.84a5.14,5.14,0,0,0,.7,0q1.9,0,2.36-1.23a1,1,0,0,0,.07-.37h-3.44a0,0,0,0,1,0,0q.57-.83.58-.83h2.73a1.6,1.6,0,0,0-.91-.74,2.83,2.83,0,0,0-.86-.16h-1.53v0Q149.91,71.37,149.93,71.37Z" transform="translate(-130.22 -69.06)"/></svg>