<svg id="Layer_1" data-name="Layer 1" xmlns="http://www.w3.org/2000/svg" viewBox="0 0 480 800"><defs><style>.cls-1{font-size:32.11px;}.cls-1,.cls-6{fill:#ef4136;}.cls-1,.cls-4{font-family:Montserrat-Bold, Montserrat;font-weight:700;}.cls-2{letter-spacing:-0.01em;}.cls-3,.cls-7{fill:#232c79;}.cls-3{letter-spacing:0em;}.cls-4{font-size:4.27px;fill:#727373;}.cls-5{fill:#fff;}.cls-8{fill:#76768e;}</style></defs><title>Visaman Logo</title><text class="cls-1" transform="translate(180.36 393.51)"><tspan class="cls-2">V</tspan><tspan x="23.47" y="0">ISA</tspan><tspan class="cls-3" x="79.08" y="0">MAN</tspan></text><text class="cls-4" transform="translate(341.03 374.09)">TM</text><polygon class="cls-5" points="164.66 362.34 133.14 362.34 133.14 406.5 133.14 406.5 138.45 406.5 140.98 411.77 143.38 406.5 164.66 406.5 164.66 362.34"/><path class="cls-6" d="M141,413.84l-3.1-6.47h-5.63v-45.9h33.27v45.9H143.94Zm-7-8.22h5l2,4.09,1.86-4.09h21V363.21H134Z"/><g id="_Group_" data-name="&lt;Group&gt;"><polygon class="cls-5" points="170.11 402.33 137.56 402.33 137.56 356.62 162.12 356.62 170.11 364.48 170.11 402.33"/><path class="cls-6" d="M171,403.21h-34.3V355.74h25.8l8.51,8.37Zm-32.56-1.75h30.81V364.84l-7.48-7.35H138.43Z"/></g><circle class="cls-5" cx="167.07" cy="385.99" r="8.37"/><path class="cls-6" d="M167.07,395.05a9.07,9.07,0,1,1,9.07-9.07A9.08,9.08,0,0,1,167.07,395.05Zm0-16.74a7.67,7.67,0,1,0,7.67,7.67A7.68,7.68,0,0,0,167.07,378.32Z"/><path class="cls-7" d="M162.45,386.43l3,2.42c.52.43,1.48.07,1.88-.38l4.37-4.93c.34-.38-.29-.55-.54-.58a1.67,1.67,0,0,0-1.34.55l-4.37,4.93,1.88-.38-3-2.42c-.55-.44-2.42.35-1.88.79Z"/><path class="cls-8" d="M161.88,372.11h-20a1,1,0,1,1,0-2.1h20a1,1,0,0,1,0,2.1Z"/><path class="cls-8" d="M154.82,381H141.88a1,1,0,1,1,0-2.1h12.93a1,1,0,1,1,0,2.1Z"/><path class="cls-8" d="M150.86,389.83h-9a1,1,0,1,1,0-2.1h9a1,1,0,0,1,0,2.1Z"/><polygon class="cls-6" points="161.01 365.46 161.01 356.62 162.75 356.62 162.75 363.69 169.91 363.6 169.93 365.35 161.01 365.46"/></svg>