<svg id="Layer_1" data-name="Layer 1" xmlns="http://www.w3.org/2000/svg" viewBox="0 0 480 800"><defs><style>.cls-1{fill:#ef4237;}.cls-2{fill:#fff;}</style></defs><title>Mobile Icon</title><path class="cls-1" d="M239.5,412.46h-3.78a2,2,0,0,1-2.07-2.09q0-10.36,0-20.71a2.06,2.06,0,0,1,2.13-2.12h8.44a2.06,2.06,0,0,1,2.13,2.13v12.92q0,3.86,0,7.73a2.07,2.07,0,0,1-.78,1.69,2,2,0,0,1-1.3.45H239.5ZM235.78,388a1.56,1.56,0,0,0-1.63,1.62q0,10.36,0,20.71a1.55,1.55,0,0,0,1.58,1.59h8.56a1.53,1.53,0,0,0,1-.34,1.57,1.57,0,0,0,.59-1.3q0-3.86,0-7.73V389.67a1.56,1.56,0,0,0-1.63-1.63Zm5.69,22.72h-2.94v-2h2.94Zm-2.44-.5H241v-1H239Zm-.74.5h-2.94v-2h2.94Zm-2.44-.5h1.94v-1h-1.94Zm8.79.5h-2.94v-2h2.94Zm-2.44-.5h1.94v-1h-1.94Zm-3.92-1.69h-2.94v-2h2.94Zm-2.44-.5h1.94v-1h-1.94Zm5.62.5h-2.94v-2h2.94Zm-2.44-.5H241v-1H239Zm5.61.5h-2.94v-2h2.94Zm-2.44-.5h1.94v-1h-1.94Zm2.43-1.7h-2.94v-2h2.94Zm-2.44-.5h1.94v-1h-1.94Zm-.73.5h-2.95v-2h2.95Zm-2.45-.5H241v-1H239Zm-.73.5h-2.94v-2h2.94Zm-2.44-.5h1.94v-1h-1.94Zm8.79-1.69h-2.94v-2h2.94Zm-2.44-.5h1.94v-1h-1.94Zm-.73.5h-2.95v-2h2.95Zm-2.45-.5H241v-1H239Zm-.73.5h-2.94v-2h2.94Zm-2.44-.5h1.94v-1h-1.94Zm8.79-1.69h-9.29V389.25h9.29Zm-8.79-.5h8.29V389.75h-8.29Z"/><path class="cls-2" d="M244.4,401.71h-8.79V389.5h8.79Zm-8.29-.5h7.79V390h-7.79Z"/><path class="cls-2" d="M241.23,406.84v1.47h-2.44v-1.47Z"/><path class="cls-2" d="M235.61,406.83H238v1.48h-2.44Z"/><path class="cls-2" d="M244.4,406.84v1.47H242v-1.47Z"/><path class="cls-2" d="M241.23,402.45v1.46h-2.45v-1.46Z"/><path class="cls-2" d="M244.4,402.45v1.46H242v-1.46Z"/><path class="cls-2" d="M238.05,404.64v1.46h-2.44v-1.46Z"/><path class="cls-2" d="M241.23,404.64v1.46h-2.45v-1.46Z"/><path class="cls-2" d="M244.39,406.1H242v-1.46h2.44Z"/><path class="cls-2" d="M238.05,402.44v1.46h-2.44v-1.46Z"/><path class="cls-2" d="M235.61,409H238v1.46h-2.44Z"/><path class="cls-2" d="M238.78,409h2.44v1.46h-2.44Z"/><path class="cls-2" d="M242,409h2.44v1.46H242Z"/></svg>