<svg id="Layer_1" data-name="Layer 1" xmlns="http://www.w3.org/2000/svg" viewBox="0 0 22.67 36.28"><defs><style>.cls-1{fill:#c7c8ca;}</style></defs><title>call_gray_icon</title><path class="cls-1" d="M68.5,36.87l4,6.89-.07,0a2.49,2.49,0,0,0-1.09,1.59,4.5,4.5,0,0,0-.08,1.72,11.43,11.43,0,0,0,3.19,6.43A5.84,5.84,0,0,0,76,54.72a3.38,3.38,0,0,0,1.49.4,2.54,2.54,0,0,0,1.2-.28l.13-.06h0l4,6.86s0,0,0,0a10,10,0,0,1-1.92.92,4.05,4.05,0,0,1-3.37-.36,13.6,13.6,0,0,1-2.37-1.7,25.82,25.82,0,0,1-3.82-4.24,35.75,35.75,0,0,1-4.75-8.8,22.26,22.26,0,0,1-1-3.66A13.26,13.26,0,0,1,65.3,41a3.88,3.88,0,0,1,1.5-3,12.24,12.24,0,0,1,1.65-1.08Z" transform="translate(-65.29 -26.53)"/><path class="cls-1" d="M82.2,52a.85.85,0,0,1,.69.4l.05.09,3.7,6.4a.9.9,0,0,1-.34,1.29L84.94,61c-.16.09-.32.17-.47.27a.94.94,0,0,1-1.38-.36c-.8-1.42-1.63-2.83-2.44-4.24l-1.22-2.12a.91.91,0,0,1-.14-.58.89.89,0,0,1,.46-.69l1.07-.62.85-.49A.89.89,0,0,1,82.2,52Z" transform="translate(-65.29 -26.53)"/><path class="cls-1" d="M73.75,43.69a.92.92,0,0,1-.87-.46l-.81-1.41-2.87-5a1.41,1.41,0,0,1-.15-.33.87.87,0,0,1,.39-1l.24-.14,1.71-1a.91.91,0,0,1,.67-.13.93.93,0,0,1,.63.48l1.44,2.5,2.24,3.88a.94.94,0,0,1,.14.7.85.85,0,0,1-.4.57l-2,1.16A1.52,1.52,0,0,1,73.75,43.69Z" transform="translate(-65.29 -26.53)"/><path class="cls-1" d="M88,37.18c-.14.91-.27,1.82-.42,2.72a.69.69,0,1,1-1.34-.28,10,10,0,0,0,.21-3.72,9.55,9.55,0,0,0-3.76-6.4A9.17,9.17,0,0,0,79.57,28c-.34-.1-.65-.23-.71-.64a.67.67,0,0,1,.92-.74,15.22,15.22,0,0,1,2.15.85,10.77,10.77,0,0,1,4.89,5.08,10.61,10.61,0,0,1,1.05,4.67Z" transform="translate(-65.29 -26.53)"/><path class="cls-1" d="M85.19,37.21c-.11.68-.2,1.36-.33,2a.66.66,0,0,1-.8.58.68.68,0,0,1-.54-.83,16.84,16.84,0,0,0,.2-2.18,6.82,6.82,0,0,0-4.64-6.13,4.9,4.9,0,0,1-.51-.18.66.66,0,0,1-.39-.86.68.68,0,0,1,.84-.43,7.91,7.91,0,0,1,2.39,1.08A8.29,8.29,0,0,1,85,35.93c0,.05,0,.11,0,.16l.09,1.11Z" transform="translate(-65.29 -26.53)"/><path class="cls-1" d="M82.39,37.35c0,.26-.08.67-.16,1.07s-.44.78-.89.68-.54-.46-.48-1a6.06,6.06,0,0,0,0-1.64,4,4,0,0,0-2.68-3.19l-.33-.12a.68.68,0,0,1-.44-.86.69.69,0,0,1,.9-.43,5.17,5.17,0,0,1,1.91,1A5.64,5.64,0,0,1,82.39,37.35Z" transform="translate(-65.29 -26.53)"/><path class="cls-1" d="M79.62,37.31a4.84,4.84,0,0,1-.11.62.66.66,0,0,1-.8.47.67.67,0,0,1-.53-.7c0-.17.06-.34,0-.5a1.36,1.36,0,0,0-.82-1.26l-.26-.11a.67.67,0,0,1-.38-.89.69.69,0,0,1,.89-.38A2.8,2.8,0,0,1,79.62,37.31Z" transform="translate(-65.29 -26.53)"/></svg>