<svg id="Layer_1" data-name="Layer 1" xmlns="http://www.w3.org/2000/svg" viewBox="0 0 32.01 32.15"><defs><style>.cls-1{fill:#c7c8ca;}.cls-2{fill:#fff;}</style></defs><title>faq_gray_icon</title><path class="cls-1" d="M340.21,28.35H320.34a3.79,3.79,0,0,0-3.79,3.79V43.43a3.79,3.79,0,0,0,3.79,3.79h1.56v8l9-8h9.34A3.79,3.79,0,0,0,344,43.43V32.15A3.79,3.79,0,0,0,340.21,28.35Z" transform="translate(-316.54 -28.35)"/><path class="cls-1" d="M327.85,52.75H334l8.87,7.75V52.75s5.14,0,5.63-4.61V38.32s0-3.84-3-4.45l0,9.4s.55,4.94-4.41,5.6l-9.11,0Z" transform="translate(-316.54 -28.35)"/><path class="cls-2" d="M321,34h3.45v1.29h-2.14V36.6h2.14v1.27h-2.14V41H321Z" transform="translate(-316.54 -28.35)"/><path class="cls-2" d="M327.76,34h1.34l2.67,7H330.4l-.54-1.43H327L326.46,41h-1.37Zm.68,1.84-.93,2.39h1.86Z" transform="translate(-316.54 -28.35)"/><path class="cls-2" d="M338.77,40,340,41.55h-1.57l-.62-.79a3.67,3.67,0,0,1-4.3-.66,3.66,3.66,0,0,1,.77-5.73,3.54,3.54,0,0,1,1.81-.49,3.46,3.46,0,0,1,2.54,1.07,3.72,3.72,0,0,1,.14,5Zm-.83-1.07a2.42,2.42,0,0,0,.42-1.38,2.32,2.32,0,0,0-.67-1.68,2.16,2.16,0,0,0-1.61-.69,2.19,2.19,0,0,0-1.63.67,2.34,2.34,0,0,0-.66,1.71,2.22,2.22,0,0,0,.83,1.83,2.28,2.28,0,0,0,1.47.52,2.18,2.18,0,0,0,.89-.18l-1.25-1.6h1.58Z" transform="translate(-316.54 -28.35)"/></svg>