<svg id="Layer_1" data-name="Layer 1" xmlns="http://www.w3.org/2000/svg" viewBox="0 0 28.35 28.36"><defs><style>.cls-1{fill:#ef7838;}.cls-2{fill:#fff;}</style></defs><title>whatsapp_orange_icon</title><path class="cls-1" d="M172.7,123.31a14.17,14.17,0,0,1,10.53,4.59,13.67,13.67,0,0,1,3.62,7.7,13.82,13.82,0,0,1-2.21,9.69,13.19,13.19,0,0,1-2.1,2.52,15.4,15.4,0,0,1-2.69,2,13.79,13.79,0,0,1-3.06,1.31,14.2,14.2,0,0,1-10.6-1.09c-.34-.18-.66-.37-1-.58a.43.43,0,0,0-.41-.05c-1.39.45-2.78.9-4.17,1.33a1.77,1.77,0,0,1-.61,0s-.1-.15-.1-.23a4.21,4.21,0,0,1,.32-1.35q.55-1.61,1.08-3.23a.35.35,0,0,0-.05-.27,14.38,14.38,0,0,1-1.74-3.31,14.23,14.23,0,0,1-.83-3.9,13.82,13.82,0,0,1,1.19-6.72,14.23,14.23,0,0,1,11.23-8.31C171.67,123.36,172.25,123.35,172.7,123.31Zm-5,6.53h-.44a1.37,1.37,0,0,0-1,.35,4.64,4.64,0,0,0-1.61,3.16,6.09,6.09,0,0,0,.85,3.46,20.38,20.38,0,0,0,2.17,3.11,15.59,15.59,0,0,0,4.35,3.76,18.21,18.21,0,0,0,3.41,1.38,7.73,7.73,0,0,0,1.58.37,4.44,4.44,0,0,0,3-.88,2.63,2.63,0,0,0,1-1.16,5,5,0,0,0,.31-1.62.61.61,0,0,0-.37-.64c-.43-.2-.85-.42-1.28-.62-.72-.34-1.43-.68-2.16-1-.41-.17-.59-.07-.86.27q-.61.78-1.24,1.54a.56.56,0,0,1-.78.19c-.41-.18-.81-.35-1.2-.56a11.16,11.16,0,0,1-4.43-4.26c-.26-.42-.22-.55.11-.92a5.51,5.51,0,0,0,1-1.34.92.92,0,0,0,0-.81c-.21-.48-.41-1-.61-1.46s-.51-1.22-.77-1.82a.76.76,0,0,0-.84-.52A2.58,2.58,0,0,1,167.69,129.84Z" transform="translate(-158.64 -123.31)"/><path class="cls-2" d="M167.69,129.84a2.58,2.58,0,0,0,.33,0,.76.76,0,0,1,.84.52c.27.6.52,1.22.77,1.82s.4,1,.61,1.46a.92.92,0,0,1,0,.81,5.51,5.51,0,0,1-1,1.34c-.34.37-.37.5-.11.92a11.16,11.16,0,0,0,4.43,4.26c.39.2.8.38,1.2.56a.56.56,0,0,0,.78-.19q.63-.76,1.24-1.54c.27-.35.45-.45.86-.27.73.31,1.44.65,2.16,1,.43.2.85.42,1.28.62a.61.61,0,0,1,.37.64,5,5,0,0,1-.31,1.62,2.63,2.63,0,0,1-1,1.16,4.44,4.44,0,0,1-3,.88,7.73,7.73,0,0,1-1.58-.37,18.21,18.21,0,0,1-3.41-1.38,15.59,15.59,0,0,1-4.35-3.76,20.38,20.38,0,0,1-2.17-3.11,6.09,6.09,0,0,1-.85-3.46,4.64,4.64,0,0,1,1.61-3.16,1.37,1.37,0,0,1,1-.35h.44Z" transform="translate(-158.64 -123.31)"/></svg>