<svg id="Layer_1" data-name="Layer 1" xmlns="http://www.w3.org/2000/svg" viewBox="0 0 38.38 30.29"><defs><style>.cls-1{fill:#c7c8ca;fill-rule:evenodd;}</style></defs><title>service_grey_icon</title><path class="cls-1" d="M369.53,51.46c-.59,0-3.73,1-4.15,2.13a8.18,8.18,0,0,0-.28,1c-.54,2.16-1.41,8-.56,8h19.52c.66,0,.23-5.53-.53-8.42a1.82,1.82,0,0,0-.94-1.41A7.24,7.24,0,0,0,381,52a11.36,11.36,0,0,0-1.79-.56c0-.31-.07-.34-.28-.47-1.65-1.07-7.46-1-9.09,0A.47.47,0,0,0,369.53,51.46Z" transform="translate(-346 -32.32)"/><path class="cls-1" d="M373.91,49.19l2.19.08c.64,0,.81.37,1.89-1.06a9.39,9.39,0,0,0,.63-1A10.06,10.06,0,0,0,380,41.77a5.69,5.69,0,0,0-5.45-5.45,5.14,5.14,0,0,0-2.8.6A5.54,5.54,0,0,0,369,40.1a7.69,7.69,0,0,0-.37,1.9c0,.32.07.31.08.68a9.63,9.63,0,0,0,1.41,4.56,7.73,7.73,0,0,0,1.33,1.7c.41.41.42.36,1,.32S373.32,49.19,373.91,49.19Z" transform="translate(-346 -32.32)"/><path class="cls-1" d="M346,34.36V49.79a2.07,2.07,0,0,0,.66,1.38,2.24,2.24,0,0,0,1.46.58h17.4a2.09,2.09,0,0,0,2.12-2V45.56a4.35,4.35,0,0,1-1.59-.38v4.09c0,.54,0,.91-.53.91h-17.4a.47.47,0,0,1-.53-.53V34.44a.47.47,0,0,1,.53-.53h17.4a.78.78,0,0,1,.53.23v5.52a1.33,1.33,0,0,0,.78-.35l.81-1.77V34.21a2.14,2.14,0,0,0-1.89-1.89H347.89A2.11,2.11,0,0,0,346,34.36Z" transform="translate(-346 -32.32)"/><path class="cls-1" d="M356.67,44.57c1.31,0,1.89-.75,2.54-1.85a6.33,6.33,0,0,0,.61-1.44,8.87,8.87,0,0,0,.33-1.78,3.3,3.3,0,0,0-6-2.12C352.42,39.82,354.71,44.57,356.67,44.57Z" transform="translate(-346 -32.32)"/><path class="cls-1" d="M365.37,42.3c0,2.31,3,3.12,3,1.74a3,3,0,0,0-.13-.77,4.38,4.38,0,0,1-.1-.81,4.89,4.89,0,0,1,0-1.63,6.08,6.08,0,0,1,5.86-5,6.31,6.31,0,0,1,4.7,1.73A7.13,7.13,0,0,1,380,39.18c1.16,2.68.28,4.22.28,4.94s.94.82,1.92.25a2.3,2.3,0,0,0-.08-4c-.87-.41-.69.14-1.08-.89a7.4,7.4,0,0,0-.3-.68,7.05,7.05,0,0,0-6-3.86,7,7,0,0,0-3.84.85,5.23,5.23,0,0,0-1.18.79,6.41,6.41,0,0,0-1.4,1.62c-.12.2-.26.4-.37.62-.41.83-.3,1.18-.72,1.33a2,2,0,0,0-1.26.71A2.49,2.49,0,0,0,365.37,42.3Z" transform="translate(-346 -32.32)"/><path class="cls-1" d="M350.84,54.18c0,.2.43.3.68.3h10.59c1,0,.63-.69.43-1.33-.09-.29-.17-.71-.5-.71H351.6C351.22,52.44,350.84,53.76,350.84,54.18Z" transform="translate(-346 -32.32)"/><path class="cls-1" d="M352.66,38.22c-1.66,0-1.59-.07-1.59,2,0,1,1.27.8,1.44.83.32.07.2.11.26.49.12.72.5,1.56.46,1.74s-.19.23-.19.56a.76.76,0,1,0,1.51-.08c0-.36-.37-.68-1-.68,0-.25-.41-1.18-.48-1.87-.06-.52.27-.19.11-.85a3.51,3.51,0,0,1,1-3.65,3.13,3.13,0,0,1,1.06-.76,3.89,3.89,0,0,1,4.24.65c1.73,1.6,1,3.23,1,4.14,0,.33,2.12.74,2.12-.61,0-.64.14-1.62-.43-1.84a3.47,3.47,0,0,0-1.09,0A4.85,4.85,0,0,0,359.57,36a4.44,4.44,0,0,0-5.46,0A4.28,4.28,0,0,0,352.66,38.22Z" transform="translate(-346 -32.32)"/><path class="cls-1" d="M349.33,49h6.43a4.44,4.44,0,0,0-.4-.88,14.55,14.55,0,0,1-1-2.82l-1.72.4c-1.4.3-2.28.44-2.75,1.63A5.46,5.46,0,0,0,349.33,49Z" transform="translate(-346 -32.32)"/><path class="cls-1" d="M357.88,49h5.6c.12,0,.36,0,.46,0,.25,0,.37.18.08-.93s-.52-1.65-1.66-2l-3-.73A19.81,19.81,0,0,1,357.88,49Z" transform="translate(-346 -32.32)"/><path class="cls-1" d="M356.06,46.31c0,.27.15.6.15.83,0,.52-.37,1.31-.38,1.89h2c0-.39-.38-1.64-.38-1.82,0-.33.12-.59.15-.91-.26-.06-.58-.3-.76-.3S356.32,46.25,356.06,46.31Z" transform="translate(-346 -32.32)"/></svg>