<svg id="Layer_1" data-name="Layer 1" xmlns="http://www.w3.org/2000/svg" viewBox="0 0 215.12 58.1"><defs><style>.cls-1{fill:#ef4136;}.cls-2{fill:#232c79;}.cls-3{fill:#727373;}.cls-4{fill:#fff;}.cls-5{fill:#76768e;}</style></defs><title>Logo VM</title><path class="cls-1" d="M485.82,30.45l-9.73,22.48H471l-9.7-22.48h5.62l6.84,16.05,6.94-16.05Z" transform="translate(-413.45 -15.16)"/><path class="cls-1" d="M487.68,30.45h5.2V52.93h-5.2Z" transform="translate(-413.45 -15.16)"/><path class="cls-1" d="M500.45,52.59a12.08,12.08,0,0,1-4-1.88l1.77-3.92a11.94,11.94,0,0,0,3.44,1.7,12.88,12.88,0,0,0,4,.64,6.36,6.36,0,0,0,3.28-.66A2,2,0,0,0,510,46.73a1.67,1.67,0,0,0-.63-1.33,4.73,4.73,0,0,0-1.61-.85q-1-.32-2.65-.71a36.41,36.41,0,0,1-4.21-1.22,6.83,6.83,0,0,1-2.81-2,5.28,5.28,0,0,1-1.17-3.6A6.25,6.25,0,0,1,498,33.52,7.12,7.12,0,0,1,501.15,31a13,13,0,0,1,5.22-.93,17.29,17.29,0,0,1,4.21.51,12.44,12.44,0,0,1,3.6,1.48L512.57,36a12.54,12.54,0,0,0-6.23-1.77,5.84,5.84,0,0,0-3.23.71,2.16,2.16,0,0,0-1,1.86,1.82,1.82,0,0,0,1.2,1.72,18.87,18.87,0,0,0,3.68,1.11,36.75,36.75,0,0,1,4.21,1.22A7,7,0,0,1,514,42.78a5.17,5.17,0,0,1,1.17,3.56,6.14,6.14,0,0,1-1.08,3.52,7.23,7.23,0,0,1-3.23,2.52,13.15,13.15,0,0,1-5.23.93A18.39,18.39,0,0,1,500.45,52.59Z" transform="translate(-413.45 -15.16)"/><path class="cls-1" d="M533.5,48.11H523.07l-2,4.82h-5.33l10-22.48h5.14l10,22.48h-5.46Zm-1.64-3.95-3.56-8.6-3.56,8.6Z" transform="translate(-413.45 -15.16)"/><path class="cls-2" d="M563.75,52.93l0-13.49L557.1,50.55h-2.34l-6.58-10.82v13.2H543.3V30.45h4.3l8.41,14,8.28-14h4.27l.06,22.48Z" transform="translate(-413.45 -15.16)"/><path class="cls-2" d="M588.76,48.11H578.33l-2,4.82H571l10-22.48h5.14l10,22.48h-5.46Zm-1.64-3.95-3.56-8.6L580,44.16Z" transform="translate(-413.45 -15.16)"/><path class="cls-2" d="M619.17,30.45V52.93H614.9L603.69,39.28V52.93h-5.14V30.45h4.3L614,44.1V30.45Z" transform="translate(-413.45 -15.16)"/><path class="cls-3" d="M623.19,31.09h-1v-.56h2.6v.56h-1v2.42h-.69Z" transform="translate(-413.45 -15.16)"/><path class="cls-3" d="M627.92,33.51V31.72L627,33.19h-.31l-.87-1.44v1.75h-.65v-3h.57l1.12,1.86,1.1-1.86h.57v3Z" transform="translate(-413.45 -15.16)"/><polygon class="cls-4" points="32.4 6.59 0.87 6.59 0.87 50.75 0.87 50.75 6.18 50.75 8.71 56.03 11.12 50.75 32.4 50.75 32.4 6.59"/><path class="cls-1" d="M422.18,73.26l-3.1-6.47h-5.63V20.88h33.27v45.9H425.13Zm-7-8.22h5l2,4.09L424,65h21V22.63H415.2Z" transform="translate(-413.45 -15.16)"/><g id="_Group_" data-name="&lt;Group&gt;"><polygon class="cls-4" points="37.85 46.59 5.29 46.59 5.29 0.87 29.86 0.87 37.85 8.73 37.85 46.59"/><path class="cls-1" d="M452.17,62.63h-34.3V15.16h25.8l8.51,8.37Zm-32.56-1.75h30.81V24.26L443,16.91H419.62Z" transform="translate(-413.45 -15.16)"/></g><circle class="cls-4" cx="34.81" cy="30.24" r="8.37"/><path class="cls-1" d="M448.26,54.47a9.07,9.07,0,1,1,9.07-9.07A9.08,9.08,0,0,1,448.26,54.47Zm0-16.74a7.67,7.67,0,1,0,7.67,7.67A7.68,7.68,0,0,0,448.26,37.74Z" transform="translate(-413.45 -15.16)"/><path class="cls-2" d="M443.64,45.85l3,2.42c.52.43,1.48.07,1.88-.38L452.88,43c.34-.38-.29-.55-.54-.58a1.67,1.67,0,0,0-1.34.55l-4.37,4.93,1.88-.38-3-2.42c-.55-.44-2.42.35-1.88.79Z" transform="translate(-413.45 -15.16)"/><path class="cls-5" d="M443.07,31.53h-20a1,1,0,1,1,0-2.1h20a1,1,0,0,1,0,2.1Z" transform="translate(-413.45 -15.16)"/><path class="cls-5" d="M436,40.39H423.07a1,1,0,1,1,0-2.1H436a1,1,0,1,1,0,2.1Z" transform="translate(-413.45 -15.16)"/><path class="cls-5" d="M432.05,49.25h-9a1,1,0,1,1,0-2.1h9a1,1,0,0,1,0,2.1Z" transform="translate(-413.45 -15.16)"/><polygon class="cls-1" points="28.74 9.72 28.74 0.87 30.49 0.87 30.49 7.95 37.65 7.86 37.67 9.61 28.74 9.72"/></svg>