<svg id="Layer_1" data-name="Layer 1" xmlns="http://www.w3.org/2000/svg" viewBox="0 0 33.33 33.36"><defs><style>.cls-1{fill:#c7c8ca;}</style></defs><title>contact_us_gray_icon</title><path class="cls-1" d="M512.1,193.33l4,6.14-.06,0a2.3,2.3,0,0,0-.92,1.52,4.16,4.16,0,0,0,0,1.59,10.55,10.55,0,0,0,3.27,5.77,5.39,5.39,0,0,0,1.51,1,3.12,3.12,0,0,0,1.39.29,2.35,2.35,0,0,0,1.09-.32l.11-.06h0l4,6.12s0,0,0,0a9.2,9.2,0,0,1-1.72.95,3.74,3.74,0,0,1-3.12-.16,12.56,12.56,0,0,1-2.27-1.44,23.84,23.84,0,0,1-3.74-3.72,33,33,0,0,1-4.83-7.87,20.55,20.55,0,0,1-1.13-3.32,12.25,12.25,0,0,1-.36-2.6,3.58,3.58,0,0,1,1.23-2.87,11.3,11.3,0,0,1,1.46-1.08Z" transform="translate(-509.36 -183.32)"/><path class="cls-1" d="M525.51,206.6a.79.79,0,0,1,.65.33l.06.08,3.74,5.71a.83.83,0,0,1-.24,1.21l-1.22.79c-.14.09-.28.18-.42.28a.86.86,0,0,1-1.29-.26c-.81-1.27-1.65-2.52-2.47-3.78l-1.24-1.89a.84.84,0,0,1-.16-.53.82.82,0,0,1,.38-.66l1-.63.76-.49A.82.82,0,0,1,525.51,206.6Z" transform="translate(-509.36 -183.32)"/><path class="cls-1" d="M517.29,199.34a.85.85,0,0,1-.82-.38l-.82-1.26-2.9-4.43a1.3,1.3,0,0,1-.16-.3.81.81,0,0,1,.31-.91l.21-.14,1.53-1a.84.84,0,0,1,.61-.15.86.86,0,0,1,.61.41l1.46,2.23,2.26,3.46a.86.86,0,0,1,.16.64.78.78,0,0,1-.34.55l-1.8,1.17A1.41,1.41,0,0,1,517.29,199.34Z" transform="translate(-509.36 -183.32)"/><path class="cls-1" d="M524.06,189.74a.64.64,0,0,1-.6-.43l-1.35-4a.64.64,0,0,1,1.2-.4l1.35,4a.64.64,0,0,1-.6.84Z" transform="translate(-509.36 -183.32)"/><path class="cls-1" d="M527.74,188.83h0a.64.64,0,0,1-.61-.66l.16-4.24a.64.64,0,0,1,1.27,0l-.16,4.24A.64.64,0,0,1,527.74,188.83Z" transform="translate(-509.36 -183.32)"/><path class="cls-1" d="M531.69,189.33a.64.64,0,0,1-.58-.9l1.76-3.86a.64.64,0,1,1,1.16.53L532.26,189A.64.64,0,0,1,531.69,189.33Z" transform="translate(-509.36 -183.32)"/><path class="cls-1" d="M535.3,191.4a.64.64,0,0,1-.45-1.08l3-3a.64.64,0,0,1,.9.9l-3,3A.63.63,0,0,1,535.3,191.4Z" transform="translate(-509.36 -183.32)"/><path class="cls-1" d="M537.12,194.8a.64.64,0,0,1-.25-1.22l3.91-1.65a.64.64,0,1,1,.49,1.17l-3.91,1.65A.63.63,0,0,1,537.12,194.8Z" transform="translate(-509.36 -183.32)"/><path class="cls-1" d="M542.05,198.6h0l-4.24-.11a.64.64,0,1,1,0-1.27l4.24.11a.64.64,0,0,1,0,1.27Z" transform="translate(-509.36 -183.32)"/><path class="cls-1" d="M541.18,204.07a.63.63,0,0,1-.24,0L537,202.4a.64.64,0,1,1,.49-1.17l3.92,1.63a.64.64,0,0,1-.24,1.22Z" transform="translate(-509.36 -183.32)"/><path class="cls-1" d="M538.2,208.76a.63.63,0,0,1-.43-.17l-3.1-2.9a.64.64,0,1,1,.87-.93l3.1,2.9a.64.64,0,0,1-.43,1.1Z" transform="translate(-509.36 -183.32)"/><path class="cls-1" d="M525.12,200h2.51a.9.9,0,0,1,.57.16.52.52,0,0,1,.2.43.58.58,0,0,1-.16.41.62.62,0,0,1-.47.17h-3.54a.76.76,0,0,1-.56-.2.66.66,0,0,1-.2-.48,1.25,1.25,0,0,1,.13-.47,1.7,1.7,0,0,1,.28-.46q.64-.68,1.16-1.17a7.62,7.62,0,0,1,.74-.64,4.28,4.28,0,0,0,.66-.57,2.29,2.29,0,0,0,.4-.59A1.44,1.44,0,0,0,527,196a1.09,1.09,0,0,0-.15-.56,1,1,0,0,0-.4-.39,1.16,1.16,0,0,0-1.54.43,2.5,2.5,0,0,0-.16.4,1.71,1.71,0,0,1-.26.51.5.5,0,0,1-.42.18.53.53,0,0,1-.4-.16.61.61,0,0,1-.16-.44,1.9,1.9,0,0,1,.15-.71,2,2,0,0,1,.45-.67,2.2,2.2,0,0,1,.75-.49,2.82,2.82,0,0,1,1.07-.19,3,3,0,0,1,1.26.24,1.89,1.89,0,0,1,.59.43,2,2,0,0,1,.4.64,2,2,0,0,1,.14.75,2.14,2.14,0,0,1-.3,1.11,3.45,3.45,0,0,1-.6.78q-.31.28-1,.89a7.81,7.81,0,0,0-1,.94A2.78,2.78,0,0,0,525.12,200Z" transform="translate(-509.36 -183.32)"/><path class="cls-1" d="M532.23,200.58v-.92h-2.42a1,1,0,0,1-.69-.21.75.75,0,0,1-.23-.58.57.57,0,0,1,0-.19,1,1,0,0,1,.1-.2l.14-.2.18-.24,2.55-3.5a4,4,0,0,1,.41-.5.54.54,0,0,1,.39-.16q.73,0,.73.86v3.82h.21a1.43,1.43,0,0,1,.59.1.45.45,0,0,1,.22.45.48.48,0,0,1-.18.42.94.94,0,0,1-.55.13h-.29v.92a.83.83,0,0,1-.16.56.6.6,0,0,1-.87,0A.83.83,0,0,1,532.23,200.58Zm-2.07-2h2.07V195.7Z" transform="translate(-509.36 -183.32)"/></svg>