<svg id="Layer_1" data-name="Layer 1" xmlns="http://www.w3.org/2000/svg" viewBox="0 0 18.18 22.04"><defs><style>.cls-1{fill:#fff;fill-rule:evenodd;}</style></defs><title>notification_icon_white</title><path class="cls-1" d="M162.5,14.43v1.12H144.32V14.43l2.36-2V5.92a6.75,6.75,0,0,1,5.11-6.53v-1A1.38,1.38,0,0,1,153.17-3h.48A1.38,1.38,0,0,1,155-1.66v1a6.75,6.75,0,0,1,5.11,6.53v6.51Z" transform="translate(-144.32 3.04)"/><path class="cls-1" d="M155.59,16.73s0,.06,0,.09a2.18,2.18,0,1,1-4.36,0s0-.06,0-.09Z" transform="translate(-144.32 3.04)"/></svg>