<svg id="Layer_1" data-name="Layer 1" xmlns="http://www.w3.org/2000/svg" viewBox="0 0 21.15 21.24"><defs><style>.cls-1{fill:#fff;}</style></defs><title>faq_icon_white</title><path class="cls-1" d="M115.05,14.82h4.1L125,19.93V14.82s3.4,0,3.72-3V5.28s0-2.54-2-2.94l0,6.21a3.3,3.3,0,0,1-2.91,3.7l-6,0Z" transform="translate(-107.58 1.31)"/><path class="cls-1" d="M120.5,3.19a1.45,1.45,0,0,0-1.08.44A1.55,1.55,0,0,0,119,4.76,1.47,1.47,0,0,0,119.53,6a1.51,1.51,0,0,0,1,.35,1.44,1.44,0,0,0,.59-.12l-.82-1.06h1l.41.53a1.6,1.6,0,0,0,.28-.91,1.54,1.54,0,0,0-.44-1.11A1.43,1.43,0,0,0,120.5,3.19Z" transform="translate(-107.58 1.31)"/><path class="cls-1" d="M123.23-1.31H110.09a2.51,2.51,0,0,0-2.51,2.51V8.65a2.51,2.51,0,0,0,2.51,2.51h1v5.28l5.94-5.28h6.17a2.51,2.51,0,0,0,2.51-2.51V1.2A2.51,2.51,0,0,0,123.23-1.31ZM112.82,3.3H111.4v.83h1.41V5H111.4V7h-.87V2.45h2.28ZM116.74,7l-.36-.95h-1.88l-.37.95h-.91L115,2.45h.89L117.65,7Zm5.29.36-.41-.52a2.43,2.43,0,0,1-2.84-.44,2.37,2.37,0,0,1-.69-1.7,2.38,2.38,0,0,1,1.2-2.09,2.34,2.34,0,0,1,1.2-.33,2.28,2.28,0,0,1,1.68.71,2.35,2.35,0,0,1,.7,1.72,2.34,2.34,0,0,1-.61,1.61l.8,1Z" transform="translate(-107.58 1.31)"/><polygon class="cls-1" points="7.25 6.55 8.48 6.55 7.86 4.98 7.25 6.55"/></svg>