<svg id="Layer_1" data-name="Layer 1" xmlns="http://www.w3.org/2000/svg" viewBox="0 0 18.24 12.88"><defs><style>.cls-1{fill:#ef7838;}</style></defs><title>email_icon</title><path class="cls-1" d="M76.38,12.35l-.41.43L69.23,19.5a4.77,4.77,0,0,1-.43.39,1.09,1.09,0,0,1-1.61,0c-.44-.39-.85-.81-1.27-1.23L60,12.72a1.41,1.41,0,0,1-.17-.28,1.26,1.26,0,0,1,.34-.1H76.06Z" transform="translate(-58.89 -12.33)"/><path class="cls-1" d="M76.23,25.07c-.25.17-16.08.19-16.42,0a2.37,2.37,0,0,1,.2-.27l5.07-5.07c.18-.18.31-.19.51,0,.52.48,1,1,1.6,1.38a1.3,1.3,0,0,0,1.65,0,17.94,17.94,0,0,0,1.57-1.36c.22-.2.36-.21.56,0l5.11,5.12A1.6,1.6,0,0,1,76.23,25.07Z" transform="translate(-58.89 -12.33)"/><path class="cls-1" d="M58.91,24.35c0-.1,0-.21,0-.31q0-5.19,0-10.38a.84.84,0,0,1,0-.19c0-.07,0-.16.09-.19s.13,0,.19.06a.77.77,0,0,1,.14.13l4.91,4.91c.37.37.37.38,0,.76l-4.39,4.39c-.28.28-.56.58-.83.87Z" transform="translate(-58.89 -12.33)"/><path class="cls-1" d="M77.13,18.77q0,2.57,0,5.15a1.61,1.61,0,0,1-.07.33,1.26,1.26,0,0,1-.31-.17l-5-5c-.28-.28-.28-.35,0-.63l5-5a1.51,1.51,0,0,1,.31-.19,1.58,1.58,0,0,1,.1.38C77.13,15.36,77.13,17.07,77.13,18.77Z" transform="translate(-58.89 -12.33)"/></svg>