<svg id="Layer_1" data-name="Layer 1" xmlns="http://www.w3.org/2000/svg" viewBox="0 0 20.39 21.12"><defs><style>.cls-1{fill:#ef7838;}</style></defs><title>sms_icon</title><path class="cls-1" d="M61.5,21.92c.42-.61.84-1.17,1.21-1.77s.54-1,.79-1.5c.1-.19,0-.31-.16-.42a7.69,7.69,0,0,1-.93-.67,5.16,5.16,0,0,1-1.8-3.26,4.41,4.41,0,0,1,.31-2.24,5.59,5.59,0,0,1,1.92-2.38,7.43,7.43,0,0,1,1.62-.91,7.26,7.26,0,0,1,2.13-.56,16.82,16.82,0,0,1,1.71-.09,10,10,0,0,1,1.34.15A6.82,6.82,0,0,1,71.91,9a11.2,11.2,0,0,1,1.4.93,4.85,4.85,0,0,1,1.48,1.91A4.26,4.26,0,0,1,75,15.14a5.2,5.2,0,0,1-.76,1.49,6,6,0,0,1-1.8,1.61,10.64,10.64,0,0,1-1.67.78,6.32,6.32,0,0,1-2,.41,2.9,2.9,0,0,0-.75,0,2.52,2.52,0,0,0-.58.33,9.32,9.32,0,0,1-1,.58c-.78.35-1.58.67-2.38,1a11.08,11.08,0,0,1-2.45.55Zm4.34-5.75.1,0h.42c.35,0,.35,0,.35-.34q0-1.64,0-3.29h0l.81,3.63h.55c.14,0,.21,0,.24-.2.11-.55.24-1.09.36-1.63l.42-1.9h0v3.73c.21,0,.4,0,.58,0s.29-.06.29-.29c0-1.41,0-2.82,0-4.23,0-.08,0-.15,0-.24H68.74a.22.22,0,0,0-.16.13c-.08.29-.14.59-.2.89l-.46,2.32c0-.13-.05-.21-.07-.29-.19-.95-.38-1.89-.57-2.84,0-.08-.1-.21-.16-.21-.42,0-.84,0-1.28,0Zm7.67-3.44a1.61,1.61,0,0,0-.3-1,1.83,1.83,0,0,0-2.09-.18,1.26,1.26,0,0,0-.53,1.18A1.23,1.23,0,0,0,71.4,14c.31.14.63.24.92.39s.44.83.16,1a.72.72,0,0,1-.71.07.5.5,0,0,1-.29-.49,1.39,1.39,0,0,0-.07-.28H70.5c0,.19,0,.37.06.55a1.05,1.05,0,0,0,.63.83,2.26,2.26,0,0,0,1.24.11,1.42,1.42,0,0,0,.92-.46,1.36,1.36,0,0,0,.25-1.3,1.09,1.09,0,0,0-.4-.59,9.46,9.46,0,0,0-1.2-.62.74.74,0,0,1-.44-.4.68.68,0,0,1,.13-.7.54.54,0,0,1,.67,0,2.42,2.42,0,0,1,.28.58Zm-8.34,0c0-.19,0-.35-.06-.51a.87.87,0,0,0-.57-.72,2.53,2.53,0,0,0-1-.16,1.14,1.14,0,0,0-1.09.64,1.4,1.4,0,0,0,.69,2l.7.28a.73.73,0,0,1,.53.69c0,.36-.19.55-.6.58a.55.55,0,0,1-.6-.52c0-.1,0-.2,0-.31h-.91a1.18,1.18,0,0,0,1,1.49,4,4,0,0,0,.73,0,1.39,1.39,0,0,0,1.37-1.46,1.2,1.2,0,0,0-.72-1.12l-1.1-.51a.64.64,0,0,1-.27-.86.59.59,0,0,1,.6-.24.51.51,0,0,1,.38.48c0,.08.09.2.15.21C64.63,12.75,64.88,12.74,65.17,12.74Z" transform="translate(-54.86 -8.12)"/><path class="cls-1" d="M60.42,9.71c-.28.47-.56.89-.79,1.34a7.13,7.13,0,0,0-.4,1c0,.11-.08.14-.19.14H57c-.37,0-.51.14-.51.5q0,6,0,12c0,.35.15.51.49.51H65c.34,0,.48-.15.48-.48,0-.65,0-1.29,0-1.94a.31.31,0,0,1,.14-.23c.48-.22,1-.43,1.45-.64h.06c0,.05,0,.1,0,.16,0,1.52,0,3,0,4.56a2.54,2.54,0,0,1-.73,1.92,2.37,2.37,0,0,1-1.69.7c-2.47,0-4.94,0-7.42,0a2.28,2.28,0,0,1-2.15-1.39,2.73,2.73,0,0,1-.27-1.22c0-4.79,0-9.59,0-14.38a2.44,2.44,0,0,1,2-2.48,2.35,2.35,0,0,1,.51,0h3.07ZM61,28.23a1,1,0,1,0,0-2.05,1,1,0,0,0-1,1A1,1,0,0,0,61,28.23Z" transform="translate(-54.86 -8.12)"/></svg>