<svg id="Layer_1" data-name="Layer 1" xmlns="http://www.w3.org/2000/svg" viewBox="0 0 56.02 32.5"><defs><style>.cls-1,.cls-2{fill:#ef7838;}.cls-1,.cls-2,.cls-3{fill-rule:evenodd;}.cls-2{stroke:#fff;stroke-miterlimit:2.61;}.cls-3{fill:#fff;}</style></defs><title>membership_orange_icon</title><path class="cls-1" d="M269,151.93a47.06,47.06,0,0,1,6.86-6.54c1.9-1.46,2.59-3.4,3.22-5.82,0,0,.07-7.4,5.64-11.27L297,119.42c-1.18,12.58-13.46,8.53-14.65,18.44a11.81,11.81,0,0,1-2.72,6.56C277.64,146.93,273.59,147.58,269,151.93Z" transform="translate(-240.99 -119.42)"/><path class="cls-1" d="M269,151.93a47.06,47.06,0,0,0-6.86-6.54c-1.9-1.46-2.59-3.4-3.22-5.82,0,0-.07-7.4-5.64-11.27L241,119.42c1.18,12.58,13.46,8.53,14.65,18.44a11.81,11.81,0,0,0,2.72,6.56C260.36,146.93,264.41,147.58,269,151.93Z" transform="translate(-240.99 -119.42)"/><path class="cls-1" d="M283.87,138.76a8.92,8.92,0,0,1,5.1-7.27,67.3,67.3,0,0,0,7.27-3.75s-.23,5.74-5,8.15S287,136.94,283.87,138.76Z" transform="translate(-240.99 -119.42)"/><path class="cls-1" d="M282.76,143.27s.7-3.52,3.69-4.22a14.29,14.29,0,0,0,4.92-2.17,5,5,0,0,1-4.1,5.22Z" transform="translate(-240.99 -119.42)"/><path class="cls-1" d="M253.75,138.76a8.92,8.92,0,0,0-5.1-7.27,67.3,67.3,0,0,1-7.27-3.75s.23,5.74,5,8.15S250.59,136.94,253.75,138.76Z" transform="translate(-240.99 -119.42)"/><path class="cls-1" d="M254.86,143.27s-.7-3.52-3.69-4.22a14.29,14.29,0,0,1-4.92-2.17,5,5,0,0,0,4.1,5.22Z" transform="translate(-240.99 -119.42)"/><path class="cls-1" d="M260.2,130.36a39.63,39.63,0,0,1,18,.06c0,4.4.93,12.29-2,15.73-2.29,2.67-6.77,4.92-6.94,5.77L263.1,147C258.94,143.43,260.14,135.52,260.2,130.36Z" transform="translate(-240.99 -119.42)"/><path class="cls-2" d="M261.58,131.56c-.05,1.92-.19,3.84-.18,5.77,0,2.83.31,6.63,2.6,8.64l5.11,4.06c.37-.31.77-.58,1.08-.8,1-.73,2.08-1.44,3.07-2.24a13.87,13.87,0,0,0,1.87-1.75c2.36-2.75,1.81-9.65,1.7-13.65a35.26,35.26,0,0,0-10.82-.67,38.61,38.61,0,0,0-3.83.51Z" transform="translate(-240.99 -119.42)"/><polygon class="cls-3" points="25.39 16.51 26.64 16.51 28.2 21.21 29.78 16.51 31.02 16.51 32.15 23.24 30.91 23.24 30.19 18.99 28.77 23.24 27.63 23.24 26.21 18.99 25.48 23.24 24.23 23.24 25.39 16.51"/></svg>