<svg id="Layer_1" data-name="Layer 1" xmlns="http://www.w3.org/2000/svg" viewBox="0 0 18.18 18.19"><defs><style>.cls-1{fill:#ef7838;}</style></defs><title>whats_app_icon</title><path class="cls-1" d="M67.41,13A9.09,9.09,0,0,1,74.16,16a8.77,8.77,0,0,1,2.32,4.94,8.87,8.87,0,0,1-1.42,6.21,8.46,8.46,0,0,1-1.35,1.62A9.88,9.88,0,0,1,72,30a8.85,8.85,0,0,1-2,.84,9.11,9.11,0,0,1-6.8-.7c-.22-.11-.43-.24-.63-.37a.28.28,0,0,0-.26,0l-2.68.85a1.13,1.13,0,0,1-.39,0s-.07-.1-.07-.15a2.7,2.7,0,0,1,.2-.87q.35-1,.69-2.07a.23.23,0,0,0,0-.17,9.22,9.22,0,0,1-1.12-2.13,9.13,9.13,0,0,1-.53-2.5,8.86,8.86,0,0,1,.77-4.31,9.13,9.13,0,0,1,7.21-5.33C66.75,13,67.12,13,67.41,13ZM64.2,17.2h-.28a.88.88,0,0,0-.62.23,3,3,0,0,0-1,2,3.91,3.91,0,0,0,.55,2.22,13.07,13.07,0,0,0,1.39,2A10,10,0,0,0,67,26.08a11.68,11.68,0,0,0,2.19.88,5,5,0,0,0,1,.24,2.85,2.85,0,0,0,2-.57,1.69,1.69,0,0,0,.67-.74,3.19,3.19,0,0,0,.2-1,.39.39,0,0,0-.24-.41l-.82-.4c-.46-.22-.92-.44-1.39-.63-.26-.11-.38,0-.55.18s-.53.66-.8,1a.36.36,0,0,1-.5.12c-.26-.11-.52-.23-.77-.36a7.16,7.16,0,0,1-2.84-2.74c-.16-.27-.14-.35.07-.59a3.53,3.53,0,0,0,.64-.86.59.59,0,0,0,0-.52l-.39-.94c-.16-.39-.32-.78-.49-1.17a.48.48,0,0,0-.54-.33Z" transform="translate(-58.39 -13.02)"/></svg>