<svg id="Layer_1" data-name="Layer 1" xmlns="http://www.w3.org/2000/svg" viewBox="0 0 480 800"><defs><style>.cls-1{fill:#f2f2f3;}.cls-2{font-size:43.77px;}.cls-2,.cls-7{fill:#ef4136;}.cls-2,.cls-5{font-family:Montserrat-Bold, Montserrat;font-weight:700;}.cls-3{letter-spacing:-0.02em;}.cls-4,.cls-8{fill:#232c79;}.cls-4{letter-spacing:0em;}.cls-5{font-size:5.82px;fill:#727373;}.cls-6{fill:#fff;}.cls-9{fill:#76768e;}</style></defs><title>Splash Screen</title><rect class="cls-1" width="480" height="800"/><text class="cls-2" transform="translate(158.69 411.88)"><tspan class="cls-3">V</tspan><tspan x="32" y="0">ISA</tspan><tspan class="cls-4" x="107.81" y="0">MAN</tspan></text><text class="cls-5" transform="translate(377.73 385.41)">TM</text><polygon class="cls-6" points="137.29 369.39 94.31 369.39 94.31 429.59 94.31 429.59 101.55 429.59 105 436.79 108.28 429.59 137.29 429.59 137.29 369.39"/><path class="cls-7" d="M105,439.6l-4.22-8.82H93.12V368.2h45.36v62.58H109ZM95.5,428.4h6.8L105,434l2.54-5.58H136.1V370.58H95.5Z"/><g id="_Group_" data-name="&lt;Group&gt;"><polygon class="cls-6" points="144.72 423.92 100.33 423.92 100.33 361.59 133.83 361.59 144.72 372.3 144.72 423.92"/><path class="cls-7" d="M145.91,425.11H99.14V360.4h35.17l11.6,11.41Zm-44.39-2.38h42V372.8l-10.19-10H101.53Z"/></g><circle class="cls-6" cx="140.57" cy="401.63" r="11.41"/><path class="cls-7" d="M140.57,414a12.36,12.36,0,1,1,12.36-12.36A12.38,12.38,0,0,1,140.57,414Zm0-22.82A10.46,10.46,0,1,0,151,401.63,10.47,10.47,0,0,0,140.57,391.17Z"/><path class="cls-8" d="M134.28,402.23l4.06,3.3c.72.58,2,.1,2.57-.51l6-6.72c.46-.52-.4-.75-.74-.79a2.28,2.28,0,0,0-1.82.75l-6,6.72,2.57-.51-4.06-3.3c-.74-.6-3.3.47-2.56,1.07Z"/><path class="cls-9" d="M133.5,382.71H106.24a1.43,1.43,0,1,1,0-2.86H133.5a1.43,1.43,0,1,1,0,2.86Z"/><path class="cls-9" d="M123.87,394.79H106.24a1.43,1.43,0,1,1,0-2.86h17.63a1.43,1.43,0,1,1,0,2.86Z"/><path class="cls-9" d="M118.48,406.87H106.24a1.43,1.43,0,1,1,0-2.86h12.24a1.43,1.43,0,0,1,0,2.86Z"/><polygon class="cls-7" points="132.31 373.65 132.31 361.59 134.69 361.59 134.69 371.24 144.45 371.11 144.48 373.49 132.31 373.65"/></svg>