<svg id="Layer_1" data-name="Layer 1" xmlns="http://www.w3.org/2000/svg" viewBox="0 0 215.12 58.1"><defs><style>.cls-1{fill:#727373;}.cls-2{fill:#ef4938;}.cls-3{fill:#6d6e71;}.cls-4{fill:#ef4136;}.cls-5{fill:#232c79;}.cls-6{fill:#fff;}.cls-7{fill:#76768e;}</style></defs><title>Visaman Logo with text Line</title><path class="cls-1" d="M597.54,40.75h-1v-.56h2.6v.56h-1v2.42h-.69Z" transform="translate(-387.8 -24.82)"/><path class="cls-1" d="M602.27,43.17V41.38l-.88,1.48h-.31l-.87-1.44v1.75h-.65v-3h.57L601.25,42l1.1-1.86h.57v3Z" transform="translate(-387.8 -24.82)"/><path class="cls-2" d="M439.66,68.89H441l2.76,7.18h-1.42l-.56-1.48H438.9l-.58,1.48h-1.42Zm.7,1.9-1,2.47h1.92Z" transform="translate(-387.8 -24.82)"/><path class="cls-3" d="M450,71.86l-.54.34a2.27,2.27,0,0,0-1.92-.93,2.21,2.21,0,0,0-1.61.63,2,2,0,0,0-.64,1.52,2.15,2.15,0,0,0,.29,1.09,2.08,2.08,0,0,0,.81.8,2.45,2.45,0,0,0,3.07-.65L450,75a2.55,2.55,0,0,1-1,.89,3.26,3.26,0,0,1-1.46.32,2.89,2.89,0,0,1-2.09-.8,2.6,2.6,0,0,1-.83-1.95,2.79,2.79,0,0,1,.39-1.43A2.75,2.75,0,0,1,446,71a3.12,3.12,0,0,1,1.52-.37,3.23,3.23,0,0,1,1,.16,2.83,2.83,0,0,1,.83.42A2.29,2.29,0,0,1,450,71.86Z" transform="translate(-387.8 -24.82)"/><path class="cls-3" d="M456.44,71.86l-.54.34a2.27,2.27,0,0,0-1.92-.93,2.21,2.21,0,0,0-1.61.63,2,2,0,0,0-.64,1.52A2.15,2.15,0,0,0,452,74.5a2.08,2.08,0,0,0,.81.8,2.45,2.45,0,0,0,3.07-.65l.54.36a2.55,2.55,0,0,1-1,.89,3.26,3.26,0,0,1-1.46.32,2.89,2.89,0,0,1-2.09-.8,2.6,2.6,0,0,1-.83-1.95,2.79,2.79,0,0,1,.39-1.43,2.75,2.75,0,0,1,1.07-1,3.12,3.12,0,0,1,1.52-.37,3.23,3.23,0,0,1,1,.16,2.83,2.83,0,0,1,.83.42A2.29,2.29,0,0,1,456.44,71.86Z" transform="translate(-387.8 -24.82)"/><path class="cls-3" d="M457.66,70.76h.68v2.48a5.28,5.28,0,0,0,.1,1.25,1.39,1.39,0,0,0,.56.77,1.69,1.69,0,0,0,1,.28,1.66,1.66,0,0,0,1-.28,1.41,1.41,0,0,0,.55-.73,5.13,5.13,0,0,0,.1-1.3V70.76h.7v2.61a4.14,4.14,0,0,1-.26,1.66,2,2,0,0,1-.77.87,2.82,2.82,0,0,1-2.59,0,1.94,1.94,0,0,1-.78-.88,4.31,4.31,0,0,1-.26-1.7Z" transform="translate(-387.8 -24.82)"/><path class="cls-3" d="M463.57,70.76h.7v.78a2.44,2.44,0,0,1,.66-.69,1.3,1.3,0,0,1,.72-.23,1.25,1.25,0,0,1,.61.18l-.36.58a1,1,0,0,0-.36-.09,1,1,0,0,0-.66.28,1.77,1.77,0,0,0-.48.87,8.34,8.34,0,0,0-.13,1.84v1.8h-.7Z" transform="translate(-387.8 -24.82)"/><path class="cls-3" d="M472.13,70.76v5.31h-.67v-.91a2.91,2.91,0,0,1-1,.79,2.69,2.69,0,0,1-3.1-.55,2.75,2.75,0,0,1-.8-2,2.69,2.69,0,0,1,.81-2,2.63,2.63,0,0,1,1.94-.82,2.51,2.51,0,0,1,1.18.28,2.7,2.7,0,0,1,.93.83v-1Zm-2.73.52a2.06,2.06,0,0,0-1.82,1.07,2.15,2.15,0,0,0,0,2.15,2.09,2.09,0,0,0,.77.8,2,2,0,0,0,1,.29,2.13,2.13,0,0,0,1.06-.28,2,2,0,0,0,.77-.77,2.18,2.18,0,0,0,.27-1.09,2.11,2.11,0,0,0-.61-1.54A2,2,0,0,0,469.4,71.28Z" transform="translate(-387.8 -24.82)"/><path class="cls-3" d="M478.82,71.86l-.54.34a2.27,2.27,0,0,0-1.92-.93,2.21,2.21,0,0,0-1.61.63,2,2,0,0,0-.64,1.52,2.15,2.15,0,0,0,.29,1.09,2.08,2.08,0,0,0,.81.8,2.45,2.45,0,0,0,3.07-.65l.54.36a2.55,2.55,0,0,1-1,.89,3.26,3.26,0,0,1-1.46.32,2.89,2.89,0,0,1-2.09-.8,2.6,2.6,0,0,1-.83-1.95,2.79,2.79,0,0,1,.39-1.43,2.75,2.75,0,0,1,1.07-1,3.12,3.12,0,0,1,1.52-.37,3.23,3.23,0,0,1,1,.16,2.83,2.83,0,0,1,.83.42A2.29,2.29,0,0,1,478.82,71.86Z" transform="translate(-387.8 -24.82)"/><path class="cls-3" d="M479.57,70.76h.72l1.83,4.09,1.77-4.09h.73L481.45,78h-.72l1-2.35Z" transform="translate(-387.8 -24.82)"/><path class="cls-2" d="M491,68.89h1.36v7.18H491Z" transform="translate(-387.8 -24.82)"/><path class="cls-3" d="M493.83,70.76h.68v1a2.86,2.86,0,0,1,.91-.82,2.23,2.23,0,0,1,1.08-.27,1.88,1.88,0,0,1,1.06.3,1.8,1.8,0,0,1,.68.82,4.31,4.31,0,0,1,.22,1.6v2.73h-.68V73.54a6.24,6.24,0,0,0-.08-1.23,1.34,1.34,0,0,0-.46-.79,1.37,1.37,0,0,0-.88-.27,1.68,1.68,0,0,0-1.11.41,1.93,1.93,0,0,0-.65,1,7,7,0,0,0-.1,1.45v1.95h-.68Z" transform="translate(-387.8 -24.82)"/><path class="cls-3" d="M500.53,68.79h.68v2h1.08v.59h-1.08v4.72h-.68V71.35h-.93v-.59h.93Z" transform="translate(-387.8 -24.82)"/><path class="cls-3" d="M507.79,74.31l.58.3a3.14,3.14,0,0,1-.66.9,2.59,2.59,0,0,1-.83.52,2.93,2.93,0,0,1-1.05.18,2.54,2.54,0,0,1-2-.85,2.87,2.87,0,0,1-.73-1.93,2.84,2.84,0,0,1,.62-1.8,2.54,2.54,0,0,1,2.11-1,2.62,2.62,0,0,1,2.17,1,2.88,2.88,0,0,1,.59,1.82h-4.78a2.16,2.16,0,0,0,.59,1.52,1.89,1.89,0,0,0,1.41.59,2.28,2.28,0,0,0,.79-.14,2.05,2.05,0,0,0,.65-.37A3.16,3.16,0,0,0,507.79,74.31Zm0-1.43a2.26,2.26,0,0,0-.4-.87,1.9,1.9,0,0,0-.69-.53,2.13,2.13,0,0,0-.9-.2,2,2,0,0,0-1.34.5,2.26,2.26,0,0,0-.62,1.1Z" transform="translate(-387.8 -24.82)"/><path class="cls-3" d="M514.4,70.76h.68V75a5,5,0,0,1-.2,1.64,2.13,2.13,0,0,1-.93,1.13,3.06,3.06,0,0,1-1.6.4,3.66,3.66,0,0,1-1.23-.19,2.46,2.46,0,0,1-.89-.52,3.11,3.11,0,0,1-.63-1h.74a2,2,0,0,0,.78.78,2.51,2.51,0,0,0,1.19.25,2.46,2.46,0,0,0,1.18-.26,1.6,1.6,0,0,0,.69-.66,2.92,2.92,0,0,0,.21-1.27v-.27a2.6,2.6,0,0,1-.94.75,2.8,2.8,0,0,1-2.56-.1,2.6,2.6,0,0,1-1-1,2.68,2.68,0,0,1-.35-1.35,2.76,2.76,0,0,1,2.75-2.75,2.53,2.53,0,0,1,1.11.25,3.06,3.06,0,0,1,1,.81Zm-2,.52a2.16,2.16,0,0,0-1.08.28,2,2,0,0,0-.78.78,2.13,2.13,0,0,0-.28,1.07,1.93,1.93,0,0,0,.59,1.45,2.31,2.31,0,0,0,3,0,2,2,0,0,0,.57-1.49,2.15,2.15,0,0,0-.26-1.07,1.92,1.92,0,0,0-.75-.75A2.08,2.08,0,0,0,512.38,71.28Z" transform="translate(-387.8 -24.82)"/><path class="cls-3" d="M516.29,70.76h.7v.78a2.44,2.44,0,0,1,.66-.69,1.3,1.3,0,0,1,.72-.23,1.25,1.25,0,0,1,.61.18l-.36.58a1,1,0,0,0-.36-.09,1,1,0,0,0-.66.28,1.77,1.77,0,0,0-.48.87,8.34,8.34,0,0,0-.13,1.84v1.8h-.7Z" transform="translate(-387.8 -24.82)"/><path class="cls-3" d="M519.79,68.57a.56.56,0,0,1,0,1.13.53.53,0,0,1-.39-.17.54.54,0,0,1-.17-.4.55.55,0,0,1,.17-.4A.54.54,0,0,1,519.79,68.57Zm-.34,2.19h.68v5.31h-.68Z" transform="translate(-387.8 -24.82)"/><path class="cls-3" d="M522.15,68.79h.68v2h1.08v.59h-1.08v4.72h-.68V71.35h-.93v-.59h.93Z" transform="translate(-387.8 -24.82)"/><path class="cls-3" d="M524.38,70.76h.72l1.83,4.09,1.77-4.09h.73L526.26,78h-.72l1-2.35Z" transform="translate(-387.8 -24.82)"/><path class="cls-2" d="M536.6,68.89h1.33l1.66,5,1.68-5h1.33l1.21,7.18h-1.32l-.77-4.54-1.53,4.54H539l-1.51-4.54-.79,4.54h-1.33Z" transform="translate(-387.8 -24.82)"/><path class="cls-3" d="M549.32,74.31l.58.3a3.14,3.14,0,0,1-.66.9,2.59,2.59,0,0,1-.83.52,2.93,2.93,0,0,1-1.05.18,2.54,2.54,0,0,1-2-.85,2.87,2.87,0,0,1-.73-1.93,2.84,2.84,0,0,1,.62-1.8,2.54,2.54,0,0,1,2.11-1,2.62,2.62,0,0,1,2.17,1,2.88,2.88,0,0,1,.59,1.82h-4.78a2.16,2.16,0,0,0,.59,1.52,1.89,1.89,0,0,0,1.41.59,2.28,2.28,0,0,0,.79-.14,2.05,2.05,0,0,0,.65-.37A3.16,3.16,0,0,0,549.32,74.31Zm0-1.43a2.26,2.26,0,0,0-.4-.87,1.9,1.9,0,0,0-.69-.53,2.13,2.13,0,0,0-.9-.2,2,2,0,0,0-1.34.5,2.26,2.26,0,0,0-.62,1.1Z" transform="translate(-387.8 -24.82)"/><path class="cls-3" d="M551.94,68.79h.68v2h1.08v.59h-1.08v4.72h-.68V71.35H551v-.59h.93Z" transform="translate(-387.8 -24.82)"/><path class="cls-3" d="M554.73,68.71h.68v3a2.9,2.9,0,0,1,.91-.82,2.22,2.22,0,0,1,1.08-.27,1.88,1.88,0,0,1,1.06.3,1.8,1.8,0,0,1,.68.81,4.31,4.31,0,0,1,.22,1.6v2.73h-.68V73.54a6.48,6.48,0,0,0-.07-1.23,1.39,1.39,0,0,0-.46-.79,1.37,1.37,0,0,0-.88-.27,1.69,1.69,0,0,0-1.11.41,1.93,1.93,0,0,0-.65,1,7,7,0,0,0-.1,1.45v1.95h-.68Z" transform="translate(-387.8 -24.82)"/><path class="cls-3" d="M563.35,70.62a2.63,2.63,0,0,1,2,.89,2.85,2.85,0,0,1,0,3.87,2.81,2.81,0,0,1-4,0,2.85,2.85,0,0,1,0-3.86A2.63,2.63,0,0,1,563.35,70.62Zm0,.67a2,2,0,0,0-1.46.63,2.11,2.11,0,0,0-.61,1.52,2.16,2.16,0,0,0,.28,1.07,2,2,0,0,0,.75.77,2.15,2.15,0,0,0,2.09,0,2,2,0,0,0,.75-.77,2.16,2.16,0,0,0,.28-1.07,2.1,2.1,0,0,0-.62-1.52A2,2,0,0,0,563.34,71.29Z" transform="translate(-387.8 -24.82)"/><path class="cls-3" d="M572.68,68.71v7.36H572v-.91a2.91,2.91,0,0,1-1,.79,2.69,2.69,0,0,1-3.1-.55,2.75,2.75,0,0,1-.8-2,2.69,2.69,0,0,1,.81-2,2.63,2.63,0,0,1,1.94-.82,2.51,2.51,0,0,1,1.18.28,2.7,2.7,0,0,1,.93.83v-3Zm-2.73,2.57a2.06,2.06,0,0,0-1.82,1.07,2.15,2.15,0,0,0,0,2.15,2.09,2.09,0,0,0,.77.8,2,2,0,0,0,1,.29A2.13,2.13,0,0,0,571,75.3a2,2,0,0,0,.77-.77,2.18,2.18,0,0,0,.27-1.09,2.11,2.11,0,0,0-.61-1.54A2,2,0,0,0,569.95,71.28Z" transform="translate(-387.8 -24.82)"/><path class="cls-3" d="M576.74,70.62a2.63,2.63,0,0,1,2,.89,2.85,2.85,0,0,1,0,3.87,2.81,2.81,0,0,1-4,0,2.85,2.85,0,0,1,0-3.86A2.63,2.63,0,0,1,576.74,70.62Zm0,.67a2,2,0,0,0-1.46.63,2.11,2.11,0,0,0-.61,1.52,2.16,2.16,0,0,0,.28,1.07,2,2,0,0,0,.75.77,2.15,2.15,0,0,0,2.09,0,2,2,0,0,0,.75-.77,2.16,2.16,0,0,0,.28-1.07,2.1,2.1,0,0,0-.62-1.52A2,2,0,0,0,576.74,71.29Z" transform="translate(-387.8 -24.82)"/><path class="cls-3" d="M580.67,68.71h.68v7.36h-.68Z" transform="translate(-387.8 -24.82)"/><path class="cls-3" d="M585.29,70.62a2.63,2.63,0,0,1,2,.89,2.85,2.85,0,0,1,0,3.87,2.81,2.81,0,0,1-4,0,2.85,2.85,0,0,1,0-3.86A2.63,2.63,0,0,1,585.29,70.62Zm0,.67a2,2,0,0,0-1.46.63,2.11,2.11,0,0,0-.61,1.52,2.16,2.16,0,0,0,.28,1.07,2,2,0,0,0,.75.77,2.15,2.15,0,0,0,2.09,0,2,2,0,0,0,.75-.77,2.16,2.16,0,0,0,.28-1.07,2.1,2.1,0,0,0-.62-1.52A2,2,0,0,0,585.29,71.29Z" transform="translate(-387.8 -24.82)"/><path class="cls-3" d="M593.91,70.76h.68V75a5,5,0,0,1-.2,1.64,2.13,2.13,0,0,1-.93,1.13,3.06,3.06,0,0,1-1.6.4,3.66,3.66,0,0,1-1.23-.19,2.46,2.46,0,0,1-.89-.52,3.11,3.11,0,0,1-.63-1h.74a2,2,0,0,0,.78.78,2.51,2.51,0,0,0,1.19.25,2.46,2.46,0,0,0,1.18-.26,1.6,1.6,0,0,0,.69-.66,2.92,2.92,0,0,0,.21-1.27v-.27a2.6,2.6,0,0,1-.94.75,2.8,2.8,0,0,1-2.56-.1,2.6,2.6,0,0,1-1-1,2.68,2.68,0,0,1-.35-1.35,2.76,2.76,0,0,1,2.75-2.75,2.53,2.53,0,0,1,1.11.25,3.06,3.06,0,0,1,1,.81Zm-2,.52a2.16,2.16,0,0,0-1.08.28,2,2,0,0,0-.78.78,2.13,2.13,0,0,0-.28,1.07,1.93,1.93,0,0,0,.59,1.45,2.31,2.31,0,0,0,3,0,2,2,0,0,0,.57-1.49,2.15,2.15,0,0,0-.26-1.07,1.92,1.92,0,0,0-.75-.75A2.08,2.08,0,0,0,591.89,71.28Z" transform="translate(-387.8 -24.82)"/><path class="cls-3" d="M595.48,70.76h.72L598,74.85l1.77-4.09h.73L597.36,78h-.72l1-2.35Z" transform="translate(-387.8 -24.82)"/><path class="cls-4" d="M460,38.95l-9.73,22.48h-5.14l-9.7-22.48h5.62L447.9,55l6.94-16.05Z" transform="translate(-387.8 -24.82)"/><path class="cls-4" d="M461.87,38.95h5.2V61.42h-5.2Z" transform="translate(-387.8 -24.82)"/><path class="cls-4" d="M474.63,61.08a12.09,12.09,0,0,1-4-1.88l1.77-3.92a12,12,0,0,0,3.44,1.7,12.88,12.88,0,0,0,4,.64,6.36,6.36,0,0,0,3.28-.66,2,2,0,0,0,1.06-1.75,1.67,1.67,0,0,0-.63-1.33,4.74,4.74,0,0,0-1.61-.85q-1-.32-2.65-.71a36.5,36.5,0,0,1-4.21-1.22,6.83,6.83,0,0,1-2.81-2,5.28,5.28,0,0,1-1.17-3.6A6.25,6.25,0,0,1,472.14,42a7.12,7.12,0,0,1,3.19-2.52,13,13,0,0,1,5.22-.93,17.29,17.29,0,0,1,4.21.51,12.44,12.44,0,0,1,3.6,1.48l-1.61,3.95a12.54,12.54,0,0,0-6.23-1.77,5.84,5.84,0,0,0-3.23.71,2.16,2.16,0,0,0-1,1.86,1.82,1.82,0,0,0,1.2,1.72,18.87,18.87,0,0,0,3.68,1.11,36.75,36.75,0,0,1,4.21,1.22,7,7,0,0,1,2.81,1.93,5.17,5.17,0,0,1,1.17,3.56,6.14,6.14,0,0,1-1.08,3.52A7.23,7.23,0,0,1,485,60.88a13.16,13.16,0,0,1-5.23.93A18.39,18.39,0,0,1,474.63,61.08Z" transform="translate(-387.8 -24.82)"/><path class="cls-4" d="M507.69,56.61H497.25l-2,4.82h-5.33l10-22.48h5.14l10,22.48h-5.46ZM506,52.66l-3.56-8.6-3.56,8.6Z" transform="translate(-387.8 -24.82)"/><path class="cls-5" d="M537.93,61.42l0-13.49L531.29,59h-2.34l-6.58-10.82v13.2h-4.88V38.95h4.3l8.41,14,8.28-14h4.27l.06,22.48Z" transform="translate(-387.8 -24.82)"/><path class="cls-5" d="M562.94,56.61H552.51l-2,4.82h-5.33l10-22.48h5.14l10,22.48h-5.46Zm-1.64-3.95-3.56-8.6-3.56,8.6Z" transform="translate(-387.8 -24.82)"/><path class="cls-5" d="M593.35,38.95V61.42h-4.27L577.88,47.78V61.42h-5.14V38.95H577l11.17,13.65V38.95Z" transform="translate(-387.8 -24.82)"/><polygon class="cls-6" points="32.4 6.59 0.87 6.59 0.87 50.75 0.87 50.75 6.18 50.75 8.71 56.03 11.12 50.75 32.4 50.75 32.4 6.59"/><path class="cls-4" d="M396.54,82.92l-3.1-6.47H387.8V30.54h33.27v45.9H399.48Zm-7-8.22h5l2,4.09,1.86-4.09h21V32.29H389.55Z" transform="translate(-387.8 -24.82)"/><g id="_Group_" data-name="&lt;Group&gt;"><polygon class="cls-6" points="37.85 46.59 5.29 46.59 5.29 0.87 29.86 0.87 37.85 8.73 37.85 46.59"/><path class="cls-4" d="M426.53,72.29h-34.3V24.82H418l8.51,8.37ZM394,70.54h30.81V33.92l-7.48-7.35H394Z" transform="translate(-387.8 -24.82)"/></g><circle class="cls-6" cx="34.81" cy="30.24" r="8.37"/><path class="cls-4" d="M422.61,64.14a9.07,9.07,0,1,1,9.07-9.07A9.08,9.08,0,0,1,422.61,64.14Zm0-16.74a7.67,7.67,0,1,0,7.67,7.67A7.68,7.68,0,0,0,422.61,47.4Z" transform="translate(-387.8 -24.82)"/><path class="cls-5" d="M418,55.51l3,2.42c.52.43,1.48.07,1.88-.38l4.37-4.93c.34-.38-.29-.55-.54-.58a1.67,1.67,0,0,0-1.34.55L421,57.52l1.88-.38-3-2.42c-.55-.44-2.42.35-1.88.79Z" transform="translate(-387.8 -24.82)"/><path class="cls-7" d="M417.42,41.19h-20a1,1,0,0,1,0-2.1h20a1,1,0,0,1,0,2.1Z" transform="translate(-387.8 -24.82)"/><path class="cls-7" d="M410.36,50H397.42a1,1,0,0,1,0-2.1h12.93a1,1,0,0,1,0,2.1Z" transform="translate(-387.8 -24.82)"/><path class="cls-7" d="M406.4,58.91h-9a1,1,0,0,1,0-2.1h9a1,1,0,1,1,0,2.1Z" transform="translate(-387.8 -24.82)"/><polygon class="cls-4" points="28.74 9.72 28.74 0.87 30.49 0.87 30.49 7.95 37.65 7.86 37.67 9.61 28.74 9.72"/></svg>