<svg id="Layer_1" data-name="Layer 1" xmlns="http://www.w3.org/2000/svg" viewBox="0 0 13.58 13.58"><defs><style>.cls-1{fill:none;stroke:#6d6e71;stroke-miterlimit:10;stroke-width:1.5px;}.cls-2{fill:#333132;}</style></defs><title>checkbox_tick</title><rect class="cls-1" x="0.75" y="0.75" width="12.08" height="12.08"/><path class="cls-2" d="M135-12.22l.2.28a15.25,15.25,0,0,0-2.66,2.77,19.06,19.06,0,0,0-2.24,3.5l-.41.28a7,7,0,0,0-.7.53,8.77,8.77,0,0,0-.32-.86l-.16-.36a5.6,5.6,0,0,0-.62-1.16,1.4,1.4,0,0,0-.65-.5,1.65,1.65,0,0,1,1.11-.64q.43,0,1,1.17l.17.39a16.25,16.25,0,0,1,2.43-3.1A13.6,13.6,0,0,1,135-12.22Z" transform="translate(-124 15.33)"/></svg>