<svg id="Layer_1" data-name="Layer 1" xmlns="http://www.w3.org/2000/svg" viewBox="0 0 30.97 32.04"><defs><style>.cls-1{fill:#c7c8ca;}</style></defs><title>service_grey_icon</title><path class="cls-1" d="M453.34,44a1.41,1.41,0,0,1-1.51-1.13,9.64,9.64,0,0,1-.38-1.85c-.07-.79.22-1.08,1-1.21l.1,0c0-.68,0-1.34,0-2a9.58,9.58,0,0,1,.24-1.74,3.61,3.61,0,0,1,3.31-2.83l1.1-.1c.2-.73.5-1,1.25-1.06a7.17,7.17,0,0,1,6,2.58,6.19,6.19,0,0,1,1.27,4.17c0,.31,0,.62,0,.95l.07,0c.87.13,1.16.43,1.08,1.31a8.19,8.19,0,0,1-.39,1.78c-.27.81-.63,1-1.51,1.13,0,.15-.05.32-.1.48a7,7,0,0,1-4.63,5,3.84,3.84,0,0,1-3.37-.52,7.08,7.08,0,0,1-3.48-4.76C453.39,44.22,453.37,44.15,453.34,44Z" transform="translate(-445.89 -32.1)"/><path class="cls-1" d="M461.4,58.12l1.06-2.63v6.26c-.36,0-.72.09-1.07.11a30.13,30.13,0,0,1-12.1-1.57,9.23,9.23,0,0,1-3-1.55,1,1,0,0,1-.4-.9c0-.56,0-1.13,0-1.69a2.9,2.9,0,0,1,1.53-2.68,13.38,13.38,0,0,1,2.15-.9A21.48,21.48,0,0,0,454,50.9l2.88,7.23c.08-.18.13-.27.17-.38.37-1,.73-2,1.12-2.93.1-.24,0-.35-.16-.5a2.57,2.57,0,0,1-1.1-2.16,1.07,1.07,0,0,1,.89-1.12,5.55,5.55,0,0,1,2.43,0,1.2,1.2,0,0,1,1,1.59,2.74,2.74,0,0,1-1.14,1.79c-.15.1-.19.19-.13.37.41,1.06.81,2.13,1.22,3.19C461.31,58,461.34,58,461.4,58.12Z" transform="translate(-445.89 -32.1)"/><path class="cls-1" d="M463.6,56.41q0-3,0-6a1.64,1.64,0,0,1,1.76-1.74c2.19,0,4.38,0,6.57,0a1.7,1.7,0,0,1,1.29.53c1,1,2.1,2.07,3.16,3.09a1.49,1.49,0,0,1,.48,1.14q0,4.46,0,8.92a1.64,1.64,0,0,1-1.8,1.8h-9.64a1.66,1.66,0,0,1-1.81-1.83Q463.6,59.36,463.6,56.41Zm7.74-5.53h-5.05c-.44,0-.5.07-.5.5q0,5,0,10.05c0,.48.05.53.54.53h7.84c.43,0,.49-.06.49-.51q0-3.42,0-6.84c0-.13,0-.26,0-.42h-2a1.24,1.24,0,0,1-1.36-1.37C471.34,52.18,471.35,51.55,471.35,50.87Z" transform="translate(-445.89 -32.1)"/><path class="cls-1" d="M466.94,56.39v-1h6.58v1Z" transform="translate(-445.89 -32.1)"/><path class="cls-1" d="M473.52,57.55v1h-6.58v-1Z" transform="translate(-445.89 -32.1)"/><path class="cls-1" d="M473.51,60.82h-6.56v-1h6.56Z" transform="translate(-445.89 -32.1)"/><path class="cls-1" d="M466.94,53.06V52h3.26v1Z" transform="translate(-445.89 -32.1)"/></svg>