<svg id="Layer_1" data-name="Layer 1" xmlns="http://www.w3.org/2000/svg" viewBox="0 0 31.55 31.78"><defs><style>.cls-1{fill:#ef7838;}.cls-2{fill:none;stroke:#ef7838;stroke-miterlimit:10;}</style></defs><title>mybooking_orange_icon</title><path class="cls-1" d="M416.08,118.26c.17,2.2.8,3.08,2.18,3.06s2-.9,2.09-3.06h12.44c.34,2.32.91,3.09,2.27,3.05s1.91-.86,2.12-3a2.27,2.27,0,0,1,3,2.35c0,2.62,0,6.23,0,8.91h-2v-5.06H415.08c0,.28,0,.54,0,.8,0,4.3,0,8.6,0,12.9,0,.79.25,1,1,1,3.55,0,7.11,0,10.66,0h1.91v2c-.26,0-1.52.05-1.78.05H415.69c-1.87,0-2.66-.8-2.66-2.7q0-8.78,0-17.55C413,118.87,414,118,416.08,118.26Z" transform="translate(-413.02 -114.02)"/><path class="cls-1" d="M423.54,130.67V126.6h4.05v4.07Z" transform="translate(-413.02 -114.02)"/><path class="cls-1" d="M433.91,126.62v4h-4.1v-4Z" transform="translate(-413.02 -114.02)"/><path class="cls-1" d="M423.57,132.9h4v4h-4Z" transform="translate(-413.02 -114.02)"/><path class="cls-1" d="M417.27,126.6h4v4.07h-4Z" transform="translate(-413.02 -114.02)"/><path class="cls-1" d="M417.27,132.89h4v4h-4Z" transform="translate(-413.02 -114.02)"/><path class="cls-1" d="M436,117.17c0,.64,0,1.28,0,1.92a1,1,0,0,1-1,1.14,1,1,0,0,1-1.08-1c0-1.39,0-2.77,0-4.16a1,1,0,1,1,2,.06C436,115.78,436,116.47,436,117.17Z" transform="translate(-413.02 -114.02)"/><path class="cls-1" d="M419.23,117.12c0,.67,0,1.33,0,2a1,1,0,0,1-1,1.11,1,1,0,0,1-1-1.07c0-1.36,0-2.72,0-4.07,0-.66.33-1.07,1-1.06s1,.45,1,1.09S419.23,116.45,419.23,117.12Z" transform="translate(-413.02 -114.02)"/><circle class="cls-2" cx="24.44" cy="24.67" r="6.61"/><path class="cls-1" d="M440.68,136.3a1.32,1.32,0,0,0-1.06.43l-2.68,3-1.64-1.33c-.43-.35-1.91.27-1.49.62l2.35,1.91c.41.34,1.17.06,1.49-.3l3.45-3.89C441.38,136.46,440.88,136.33,440.68,136.3Z" transform="translate(-413.02 -114.02)"/></svg>